<?xml version="1.0" encoding="UTF-8" standalone="no"?>
<!DOCTYPE svg PUBLIC "-//W3C//DTD SVG 1.1//EN" "http://www.w3.org/Graphics/SVG/1.1/DTD/svg11.dtd">
<svg width="100%" height="100%" viewBox="0 0 4961 599" version="1.1" xmlns="http://www.w3.org/2000/svg" xmlns:xlink="http://www.w3.org/1999/xlink" xml:space="preserve" xmlns:serif="http://www.serif.com/" style="fill-rule:evenodd;clip-rule:evenodd;stroke-linejoin:round;stroke-miterlimit:2;">
    <g transform="matrix(1,0,0,1,-23553,-8152)">
        <g id="Artboard3" transform="matrix(1,0,0,1,-0.224416,-0.792138)">
            <rect x="23553.224" y="8152.792" width="4960.63" height="598.24" style="fill:none;"/>
            <clipPath id="_clip1">
                <rect x="23553.224" y="8152.792" width="4960.63" height="598.24"/>
            </clipPath>
            <g clip-path="url(#_clip1)">
                <g transform="matrix(1,0,0,1,23188.080909,7871.425026)">
                    <circle cx="499.375" cy="746.392" r="134.007" style="fill:rgb(252,252,237);"/>
                </g>
                <g transform="matrix(1,0,0,1,27880.696219,7871.425026)">
                    <circle cx="499.375" cy="746.392" r="134.007" style="fill:rgb(252,252,237);"/>
                </g>
                <g transform="matrix(1,0,0,1,27545.509411,7871.425026)">
                    <circle cx="499.375" cy="746.392" r="134.007" style="fill:rgb(252,252,237);"/>
                </g>
                <g transform="matrix(1,0,0,1,27210.322603,7871.425026)">
                    <circle cx="499.375" cy="746.392" r="134.007" style="fill:rgb(252,252,237);"/>
                </g>
                <g transform="matrix(1,0,0,1,26875.135796,7871.425026)">
                    <circle cx="499.375" cy="746.392" r="134.007" style="fill:rgb(252,252,237);"/>
                </g>
                <g transform="matrix(1,0,0,1,26539.948988,7871.425026)">
                    <circle cx="499.375" cy="746.392" r="134.007" style="fill:rgb(252,252,237);"/>
                </g>
                <g transform="matrix(1,0,0,1,26204.76218,7871.425026)">
                    <circle cx="499.375" cy="746.392" r="134.007" style="fill:rgb(252,252,237);"/>
                </g>
                <g transform="matrix(1,0,0,1,25869.575372,7871.425026)">
                    <circle cx="499.375" cy="746.392" r="134.007" style="fill:rgb(252,252,237);"/>
                </g>
                <g transform="matrix(1,0,0,1,25534.388564,7871.425026)">
                    <circle cx="499.375" cy="746.392" r="134.007" style="fill:rgb(252,252,237);"/>
                </g>
                <g transform="matrix(1,0,0,1,25199.201756,7871.425026)">
                    <circle cx="499.375" cy="746.392" r="134.007" style="fill:rgb(252,252,237);"/>
                </g>
                <g transform="matrix(1,0,0,1,24864.014948,7871.425026)">
                    <circle cx="499.375" cy="746.392" r="134.007" style="fill:rgb(252,252,237);"/>
                </g>
                <g transform="matrix(1,0,0,1,24528.82814,7871.425026)">
                    <circle cx="499.375" cy="746.392" r="134.007" style="fill:rgb(252,252,237);"/>
                </g>
                <g transform="matrix(1,0,0,1,24193.641332,7871.425026)">
                    <circle cx="499.375" cy="746.392" r="134.007" style="fill:rgb(252,252,237);"/>
                </g>
                <g transform="matrix(1,0,0,1,23858.454525,7871.425026)">
                    <circle cx="499.375" cy="746.392" r="134.007" style="fill:rgb(252,252,237);"/>
                </g>
                <g transform="matrix(1,0,0,1,23523.267717,7871.425026)">
                    <circle cx="499.375" cy="746.392" r="134.007" style="fill:rgb(252,252,237);"/>
                </g>
                <g transform="matrix(1,0,0,1,23188.080909,7541.199896)">
                    <circle cx="499.375" cy="746.392" r="134.007" style="fill:rgb(252,252,237);"/>
                </g>
                <g transform="matrix(1,0,0,1,27880.696219,7541.199896)">
                    <circle cx="499.375" cy="746.392" r="134.007" style="fill:rgb(252,252,237);"/>
                </g>
                <g transform="matrix(1,0,0,1,27545.509411,7541.199896)">
                    <circle cx="499.375" cy="746.392" r="134.007" style="fill:rgb(252,252,237);"/>
                </g>
                <g transform="matrix(1,0,0,1,27210.322603,7541.199896)">
                    <circle cx="499.375" cy="746.392" r="134.007" style="fill:rgb(252,252,237);"/>
                </g>
                <g transform="matrix(1,0,0,1,26875.135796,7541.199896)">
                    <circle cx="499.375" cy="746.392" r="134.007" style="fill:rgb(252,252,237);"/>
                </g>
                <g transform="matrix(1,0,0,1,26539.948988,7541.199896)">
                    <circle cx="499.375" cy="746.392" r="134.007" style="fill:rgb(252,252,237);"/>
                </g>
                <g transform="matrix(1,0,0,1,26204.76218,7541.199896)">
                    <circle cx="499.375" cy="746.392" r="134.007" style="fill:rgb(252,252,237);"/>
                </g>
                <g transform="matrix(1,0,0,1,25869.575372,7541.199896)">
                    <circle cx="499.375" cy="746.392" r="134.007" style="fill:rgb(252,252,237);"/>
                </g>
                <g transform="matrix(1,0,0,1,25534.388564,7541.199896)">
                    <circle cx="499.375" cy="746.392" r="134.007" style="fill:rgb(252,252,237);"/>
                </g>
                <g transform="matrix(1,0,0,1,25199.201756,7541.199896)">
                    <circle cx="499.375" cy="746.392" r="134.007" style="fill:rgb(252,252,237);"/>
                </g>
                <g transform="matrix(1,0,0,1,24864.014948,7541.199896)">
                    <circle cx="499.375" cy="746.392" r="134.007" style="fill:rgb(252,252,237);"/>
                </g>
                <g transform="matrix(1,0,0,1,24528.82814,7541.199896)">
                    <circle cx="499.375" cy="746.392" r="134.007" style="fill:rgb(252,252,237);"/>
                </g>
                <g transform="matrix(1,0,0,1,24193.641332,7541.199896)">
                    <circle cx="499.375" cy="746.392" r="134.007" style="fill:rgb(252,252,237);"/>
                </g>
                <g transform="matrix(1,0,0,1,23858.454525,7541.199896)">
                    <circle cx="499.375" cy="746.392" r="134.007" style="fill:rgb(252,252,237);"/>
                </g>
                <g transform="matrix(1,0,0,1,23523.267717,7541.199896)">
                    <circle cx="499.375" cy="746.392" r="134.007" style="fill:rgb(252,252,237);"/>
                </g>
            </g>
        </g>
    </g>
</svg>
