<?xml version="1.0" encoding="UTF-8" standalone="no"?>
<!DOCTYPE svg PUBLIC "-//W3C//DTD SVG 1.1//EN" "http://www.w3.org/Graphics/SVG/1.1/DTD/svg11.dtd">
<svg width="100%" height="100%" viewBox="0 0 9989 1920" version="1.1" xmlns="http://www.w3.org/2000/svg" xmlns:xlink="http://www.w3.org/1999/xlink" xml:space="preserve" xmlns:serif="http://www.serif.com/" style="fill-rule:evenodd;clip-rule:evenodd;stroke-linejoin:round;stroke-miterlimit:2;">
    <g transform="matrix(1,0,0,1,-33693.372652,-4065)">
        <g id="Artboard2" transform="matrix(1,0,0,1,-40.531983,-0.603606)">
            <rect x="33733.905" y="4065.604" width="9988.432" height="1919.14" style="fill:none;"/>
            <clipPath id="_clip1">
                <rect x="33733.905" y="4065.604" width="9988.432" height="1919.14"/>
            </clipPath>
            <g clip-path="url(#_clip1)">
                <g transform="matrix(1,0,0,1,-0.904635,-0.603606)">
                    <g transform="matrix(1,0,0,1,33369.441347,4444.49822)">
                        <circle cx="499.375" cy="746.392" r="134.007" style="fill:rgb(252,252,237);"/>
                    </g>
                    <g transform="matrix(1,0,0,1,38062.056657,4444.49822)">
                        <circle cx="499.375" cy="746.392" r="134.007" style="fill:rgb(252,252,237);"/>
                    </g>
                    <g transform="matrix(1,0,0,1,37726.869849,4444.49822)">
                        <circle cx="499.375" cy="746.392" r="134.007" style="fill:rgb(252,252,237);"/>
                    </g>
                    <g transform="matrix(1,0,0,1,37391.683042,4444.49822)">
                        <circle cx="499.375" cy="746.392" r="134.007" style="fill:rgb(252,252,237);"/>
                    </g>
                    <g transform="matrix(1,0,0,1,37056.496234,4444.49822)">
                        <circle cx="499.375" cy="746.392" r="134.007" style="fill:rgb(252,252,237);"/>
                    </g>
                    <g transform="matrix(1,0,0,1,36721.309426,4444.49822)">
                        <circle cx="499.375" cy="746.392" r="134.007" style="fill:rgb(252,252,237);"/>
                    </g>
                    <g transform="matrix(1,0,0,1,36386.122618,4444.49822)">
                        <circle cx="499.375" cy="746.392" r="134.007" style="fill:rgb(252,252,237);"/>
                    </g>
                    <g transform="matrix(1,0,0,1,36050.93581,4444.49822)">
                        <circle cx="499.375" cy="746.392" r="134.007" style="fill:rgb(252,252,237);"/>
                    </g>
                    <g transform="matrix(1,0,0,1,35715.749002,4444.49822)">
                        <circle cx="499.375" cy="746.392" r="134.007" style="fill:rgb(252,252,237);"/>
                    </g>
                    <g transform="matrix(1,0,0,1,35380.562194,4444.49822)">
                        <circle cx="499.375" cy="746.392" r="134.007" style="fill:rgb(252,252,237);"/>
                    </g>
                    <g transform="matrix(1,0,0,1,35045.375386,4444.49822)">
                        <circle cx="499.375" cy="746.392" r="134.007" style="fill:rgb(252,252,237);"/>
                    </g>
                    <g transform="matrix(1,0,0,1,34710.188578,4444.49822)">
                        <circle cx="499.375" cy="746.392" r="134.007" style="fill:rgb(252,252,237);"/>
                    </g>
                    <g transform="matrix(1,0,0,1,34375.001771,4444.49822)">
                        <circle cx="499.375" cy="746.392" r="134.007" style="fill:rgb(252,252,237);"/>
                    </g>
                    <g transform="matrix(1,0,0,1,34039.814963,4444.49822)">
                        <circle cx="499.375" cy="746.392" r="134.007" style="fill:rgb(252,252,237);"/>
                    </g>
                    <g transform="matrix(1,0,0,1,33704.628155,4444.49822)">
                        <circle cx="499.375" cy="746.392" r="134.007" style="fill:rgb(252,252,237);"/>
                    </g>
                    <g transform="matrix(1,0,0,1,33369.441347,3453.822831)">
                        <circle cx="499.375" cy="746.392" r="134.007" style="fill:rgb(252,252,237);"/>
                    </g>
                    <g transform="matrix(1,0,0,1,38062.056657,3453.822831)">
                        <circle cx="499.375" cy="746.392" r="134.007" style="fill:rgb(252,252,237);"/>
                    </g>
                    <g transform="matrix(1,0,0,1,37726.869849,3453.822831)">
                        <circle cx="499.375" cy="746.392" r="134.007" style="fill:rgb(252,252,237);"/>
                    </g>
                    <g transform="matrix(1,0,0,1,37391.683042,3453.822831)">
                        <circle cx="499.375" cy="746.392" r="134.007" style="fill:rgb(252,252,237);"/>
                    </g>
                    <g transform="matrix(1,0,0,1,37056.496234,3453.822831)">
                        <circle cx="499.375" cy="746.392" r="134.007" style="fill:rgb(252,252,237);"/>
                    </g>
                    <g transform="matrix(1,0,0,1,36721.309426,3453.822831)">
                        <circle cx="499.375" cy="746.392" r="134.007" style="fill:rgb(252,252,237);"/>
                    </g>
                    <g transform="matrix(1,0,0,1,36386.122618,3453.822831)">
                        <circle cx="499.375" cy="746.392" r="134.007" style="fill:rgb(252,252,237);"/>
                    </g>
                    <g transform="matrix(1,0,0,1,36050.93581,3453.822831)">
                        <circle cx="499.375" cy="746.392" r="134.007" style="fill:rgb(252,252,237);"/>
                    </g>
                    <g transform="matrix(1,0,0,1,35715.749002,3453.822831)">
                        <circle cx="499.375" cy="746.392" r="134.007" style="fill:rgb(252,252,237);"/>
                    </g>
                    <g transform="matrix(1,0,0,1,35380.562194,3453.822831)">
                        <circle cx="499.375" cy="746.392" r="134.007" style="fill:rgb(252,252,237);"/>
                    </g>
                    <g transform="matrix(1,0,0,1,35045.375386,3453.822831)">
                        <circle cx="499.375" cy="746.392" r="134.007" style="fill:rgb(252,252,237);"/>
                    </g>
                    <g transform="matrix(1,0,0,1,34710.188578,3453.822831)">
                        <circle cx="499.375" cy="746.392" r="134.007" style="fill:rgb(252,252,237);"/>
                    </g>
                    <g transform="matrix(1,0,0,1,34375.001771,3453.822831)">
                        <circle cx="499.375" cy="746.392" r="134.007" style="fill:rgb(252,252,237);"/>
                    </g>
                    <g transform="matrix(1,0,0,1,34039.814963,3453.822831)">
                        <circle cx="499.375" cy="746.392" r="134.007" style="fill:rgb(252,252,237);"/>
                    </g>
                    <g transform="matrix(1,0,0,1,33704.628155,3453.822831)">
                        <circle cx="499.375" cy="746.392" r="134.007" style="fill:rgb(252,252,237);"/>
                    </g>
                    <g transform="matrix(1,0,0,1,33369.441347,5104.94848)">
                        <circle cx="499.375" cy="746.392" r="134.007" style="fill:rgb(252,252,237);"/>
                    </g>
                    <g transform="matrix(1,0,0,1,38062.056657,5104.94848)">
                        <circle cx="499.375" cy="746.392" r="134.007" style="fill:rgb(252,252,237);"/>
                    </g>
                    <g transform="matrix(1,0,0,1,37726.869849,5104.94848)">
                        <circle cx="499.375" cy="746.392" r="134.007" style="fill:rgb(252,252,237);"/>
                    </g>
                    <g transform="matrix(1,0,0,1,37391.683042,5104.94848)">
                        <circle cx="499.375" cy="746.392" r="134.007" style="fill:rgb(252,252,237);"/>
                    </g>
                    <g transform="matrix(1,0,0,1,37056.496234,5104.94848)">
                        <circle cx="499.375" cy="746.392" r="134.007" style="fill:rgb(252,252,237);"/>
                    </g>
                    <g transform="matrix(1,0,0,1,36721.309426,5104.94848)">
                        <circle cx="499.375" cy="746.392" r="134.007" style="fill:rgb(252,252,237);"/>
                    </g>
                    <g transform="matrix(1,0,0,1,36386.122618,5104.94848)">
                        <circle cx="499.375" cy="746.392" r="134.007" style="fill:rgb(252,252,237);"/>
                    </g>
                    <g transform="matrix(1,0,0,1,36050.93581,5104.94848)">
                        <circle cx="499.375" cy="746.392" r="134.007" style="fill:rgb(252,252,237);"/>
                    </g>
                    <g transform="matrix(1,0,0,1,35715.749002,5104.94848)">
                        <circle cx="499.375" cy="746.392" r="134.007" style="fill:rgb(252,252,237);"/>
                    </g>
                    <g transform="matrix(1,0,0,1,35380.562194,5104.94848)">
                        <circle cx="499.375" cy="746.392" r="134.007" style="fill:rgb(252,252,237);"/>
                    </g>
                    <g transform="matrix(1,0,0,1,35045.375386,5104.94848)">
                        <circle cx="499.375" cy="746.392" r="134.007" style="fill:rgb(252,252,237);"/>
                    </g>
                    <g transform="matrix(1,0,0,1,34710.188578,5104.94848)">
                        <circle cx="499.375" cy="746.392" r="134.007" style="fill:rgb(252,252,237);"/>
                    </g>
                    <g transform="matrix(1,0,0,1,34375.001771,5104.94848)">
                        <circle cx="499.375" cy="746.392" r="134.007" style="fill:rgb(252,252,237);"/>
                    </g>
                    <g transform="matrix(1,0,0,1,34039.814963,5104.94848)">
                        <circle cx="499.375" cy="746.392" r="134.007" style="fill:rgb(252,252,237);"/>
                    </g>
                    <g transform="matrix(1,0,0,1,33704.628155,5104.94848)">
                        <circle cx="499.375" cy="746.392" r="134.007" style="fill:rgb(252,252,237);"/>
                    </g>
                    <g transform="matrix(1,0,0,1,33369.441347,4114.27309)">
                        <circle cx="499.375" cy="746.392" r="134.007" style="fill:rgb(252,252,237);"/>
                    </g>
                    <g transform="matrix(1,0,0,1,38062.056657,4114.27309)">
                        <circle cx="499.375" cy="746.392" r="134.007" style="fill:rgb(252,252,237);"/>
                    </g>
                    <g transform="matrix(1,0,0,1,37726.869849,4114.27309)">
                        <circle cx="499.375" cy="746.392" r="134.007" style="fill:rgb(252,252,237);"/>
                    </g>
                    <g transform="matrix(1,0,0,1,37391.683042,4114.27309)">
                        <circle cx="499.375" cy="746.392" r="134.007" style="fill:rgb(252,252,237);"/>
                    </g>
                    <g transform="matrix(1,0,0,1,37056.496234,4114.27309)">
                        <circle cx="499.375" cy="746.392" r="134.007" style="fill:rgb(252,252,237);"/>
                    </g>
                    <g transform="matrix(1,0,0,1,36721.309426,4114.27309)">
                        <circle cx="499.375" cy="746.392" r="134.007" style="fill:rgb(252,252,237);"/>
                    </g>
                    <g transform="matrix(1,0,0,1,36386.122618,4114.27309)">
                        <circle cx="499.375" cy="746.392" r="134.007" style="fill:rgb(252,252,237);"/>
                    </g>
                    <g transform="matrix(1,0,0,1,36050.93581,4114.27309)">
                        <circle cx="499.375" cy="746.392" r="134.007" style="fill:rgb(252,252,237);"/>
                    </g>
                    <g transform="matrix(1,0,0,1,35715.749002,4114.27309)">
                        <circle cx="499.375" cy="746.392" r="134.007" style="fill:rgb(252,252,237);"/>
                    </g>
                    <g transform="matrix(1,0,0,1,35380.562194,4114.27309)">
                        <circle cx="499.375" cy="746.392" r="134.007" style="fill:rgb(252,252,237);"/>
                    </g>
                    <g transform="matrix(1,0,0,1,35045.375386,4114.27309)">
                        <circle cx="499.375" cy="746.392" r="134.007" style="fill:rgb(252,252,237);"/>
                    </g>
                    <g transform="matrix(1,0,0,1,34710.188578,4114.27309)">
                        <circle cx="499.375" cy="746.392" r="134.007" style="fill:rgb(252,252,237);"/>
                    </g>
                    <g transform="matrix(1,0,0,1,34375.001771,4114.27309)">
                        <circle cx="499.375" cy="746.392" r="134.007" style="fill:rgb(252,252,237);"/>
                    </g>
                    <g transform="matrix(1,0,0,1,34039.814963,4114.27309)">
                        <circle cx="499.375" cy="746.392" r="134.007" style="fill:rgb(252,252,237);"/>
                    </g>
                    <g transform="matrix(1,0,0,1,33704.628155,4114.27309)">
                        <circle cx="499.375" cy="746.392" r="134.007" style="fill:rgb(252,252,237);"/>
                    </g>
                    <g transform="matrix(1,0,0,1,33369.441347,3784.04796)">
                        <circle cx="499.375" cy="746.392" r="134.007" style="fill:rgb(252,252,237);"/>
                    </g>
                    <g transform="matrix(1,0,0,1,38062.056657,3784.04796)">
                        <circle cx="499.375" cy="746.392" r="134.007" style="fill:rgb(252,252,237);"/>
                    </g>
                    <g transform="matrix(1,0,0,1,37726.869849,3784.04796)">
                        <circle cx="499.375" cy="746.392" r="134.007" style="fill:rgb(252,252,237);"/>
                    </g>
                    <g transform="matrix(1,0,0,1,37391.683042,3784.04796)">
                        <circle cx="499.375" cy="746.392" r="134.007" style="fill:rgb(252,252,237);"/>
                    </g>
                    <g transform="matrix(1,0,0,1,37056.496234,3784.04796)">
                        <circle cx="499.375" cy="746.392" r="134.007" style="fill:rgb(252,252,237);"/>
                    </g>
                    <g transform="matrix(1,0,0,1,36721.309426,3784.04796)">
                        <circle cx="499.375" cy="746.392" r="134.007" style="fill:rgb(252,252,237);"/>
                    </g>
                    <g transform="matrix(1,0,0,1,36386.122618,3784.04796)">
                        <circle cx="499.375" cy="746.392" r="134.007" style="fill:rgb(252,252,237);"/>
                    </g>
                    <g transform="matrix(1,0,0,1,36050.93581,3784.04796)">
                        <circle cx="499.375" cy="746.392" r="134.007" style="fill:rgb(252,252,237);"/>
                    </g>
                    <g transform="matrix(1,0,0,1,35715.749002,3784.04796)">
                        <circle cx="499.375" cy="746.392" r="134.007" style="fill:rgb(252,252,237);"/>
                    </g>
                    <g transform="matrix(1,0,0,1,35380.562194,3784.04796)">
                        <circle cx="499.375" cy="746.392" r="134.007" style="fill:rgb(252,252,237);"/>
                    </g>
                    <g transform="matrix(1,0,0,1,35045.375386,3784.04796)">
                        <circle cx="499.375" cy="746.392" r="134.007" style="fill:rgb(252,252,237);"/>
                    </g>
                    <g transform="matrix(1,0,0,1,34710.188578,3784.04796)">
                        <circle cx="499.375" cy="746.392" r="134.007" style="fill:rgb(252,252,237);"/>
                    </g>
                    <g transform="matrix(1,0,0,1,34375.001771,3784.04796)">
                        <circle cx="499.375" cy="746.392" r="134.007" style="fill:rgb(252,252,237);"/>
                    </g>
                    <g transform="matrix(1,0,0,1,34039.814963,3784.04796)">
                        <circle cx="499.375" cy="746.392" r="134.007" style="fill:rgb(252,252,237);"/>
                    </g>
                    <g transform="matrix(1,0,0,1,33704.628155,3784.04796)">
                        <circle cx="499.375" cy="746.392" r="134.007" style="fill:rgb(252,252,237);"/>
                    </g>
                    <g transform="matrix(1,0,0,1,33369.441347,4774.72335)">
                        <circle cx="499.375" cy="746.392" r="134.007" style="fill:rgb(252,252,237);"/>
                    </g>
                    <g transform="matrix(1,0,0,1,38062.056657,4774.72335)">
                        <circle cx="499.375" cy="746.392" r="134.007" style="fill:rgb(252,252,237);"/>
                    </g>
                    <g transform="matrix(1,0,0,1,37726.869849,4774.72335)">
                        <circle cx="499.375" cy="746.392" r="134.007" style="fill:rgb(252,252,237);"/>
                    </g>
                    <g transform="matrix(1,0,0,1,37391.683042,4774.72335)">
                        <circle cx="499.375" cy="746.392" r="134.007" style="fill:rgb(252,252,237);"/>
                    </g>
                    <g transform="matrix(1,0,0,1,37056.496234,4774.72335)">
                        <circle cx="499.375" cy="746.392" r="134.007" style="fill:rgb(252,252,237);"/>
                    </g>
                    <g transform="matrix(1,0,0,1,36721.309426,4774.72335)">
                        <circle cx="499.375" cy="746.392" r="134.007" style="fill:rgb(252,252,237);"/>
                    </g>
                    <g transform="matrix(1,0,0,1,36386.122618,4774.72335)">
                        <circle cx="499.375" cy="746.392" r="134.007" style="fill:rgb(252,252,237);"/>
                    </g>
                    <g transform="matrix(1,0,0,1,36050.93581,4774.72335)">
                        <circle cx="499.375" cy="746.392" r="134.007" style="fill:rgb(252,252,237);"/>
                    </g>
                    <g transform="matrix(1,0,0,1,35715.749002,4774.72335)">
                        <circle cx="499.375" cy="746.392" r="134.007" style="fill:rgb(252,252,237);"/>
                    </g>
                    <g transform="matrix(1,0,0,1,35380.562194,4774.72335)">
                        <circle cx="499.375" cy="746.392" r="134.007" style="fill:rgb(252,252,237);"/>
                    </g>
                    <g transform="matrix(1,0,0,1,35045.375386,4774.72335)">
                        <circle cx="499.375" cy="746.392" r="134.007" style="fill:rgb(252,252,237);"/>
                    </g>
                    <g transform="matrix(1,0,0,1,34710.188578,4774.72335)">
                        <circle cx="499.375" cy="746.392" r="134.007" style="fill:rgb(252,252,237);"/>
                    </g>
                    <g transform="matrix(1,0,0,1,34375.001771,4774.72335)">
                        <circle cx="499.375" cy="746.392" r="134.007" style="fill:rgb(252,252,237);"/>
                    </g>
                    <g transform="matrix(1,0,0,1,34039.814963,4774.72335)">
                        <circle cx="499.375" cy="746.392" r="134.007" style="fill:rgb(252,252,237);"/>
                    </g>
                    <g transform="matrix(1,0,0,1,33704.628155,4774.72335)">
                        <circle cx="499.375" cy="746.392" r="134.007" style="fill:rgb(252,252,237);"/>
                    </g>
                    <g transform="matrix(1,0,0,1,38397.243465,4444.49822)">
                        <circle cx="499.375" cy="746.392" r="134.007" style="fill:rgb(252,252,237);"/>
                    </g>
                    <g transform="matrix(1,0,0,1,43089.858776,4444.49822)">
                        <circle cx="499.375" cy="746.392" r="134.007" style="fill:rgb(252,252,237);"/>
                    </g>
                    <g transform="matrix(1,0,0,1,42754.671968,4444.49822)">
                        <circle cx="499.375" cy="746.392" r="134.007" style="fill:rgb(252,252,237);"/>
                    </g>
                    <g transform="matrix(1,0,0,1,42419.48516,4444.49822)">
                        <circle cx="499.375" cy="746.392" r="134.007" style="fill:rgb(252,252,237);"/>
                    </g>
                    <g transform="matrix(1,0,0,1,42084.298352,4444.49822)">
                        <circle cx="499.375" cy="746.392" r="134.007" style="fill:rgb(252,252,237);"/>
                    </g>
                    <g transform="matrix(1,0,0,1,41749.111544,4444.49822)">
                        <circle cx="499.375" cy="746.392" r="134.007" style="fill:rgb(252,252,237);"/>
                    </g>
                    <g transform="matrix(1,0,0,1,41413.924736,4444.49822)">
                        <circle cx="499.375" cy="746.392" r="134.007" style="fill:rgb(252,252,237);"/>
                    </g>
                    <g transform="matrix(1,0,0,1,41078.737928,4444.49822)">
                        <circle cx="499.375" cy="746.392" r="134.007" style="fill:rgb(252,252,237);"/>
                    </g>
                    <g transform="matrix(1,0,0,1,40743.55112,4444.49822)">
                        <circle cx="499.375" cy="746.392" r="134.007" style="fill:rgb(252,252,237);"/>
                    </g>
                    <g transform="matrix(1,0,0,1,40408.364313,4444.49822)">
                        <circle cx="499.375" cy="746.392" r="134.007" style="fill:rgb(252,252,237);"/>
                    </g>
                    <g transform="matrix(1,0,0,1,40073.177505,4444.49822)">
                        <circle cx="499.375" cy="746.392" r="134.007" style="fill:rgb(252,252,237);"/>
                    </g>
                    <g transform="matrix(1,0,0,1,39737.990697,4444.49822)">
                        <circle cx="499.375" cy="746.392" r="134.007" style="fill:rgb(252,252,237);"/>
                    </g>
                    <g transform="matrix(1,0,0,1,39402.803889,4444.49822)">
                        <circle cx="499.375" cy="746.392" r="134.007" style="fill:rgb(252,252,237);"/>
                    </g>
                    <g transform="matrix(1,0,0,1,39067.617081,4444.49822)">
                        <circle cx="499.375" cy="746.392" r="134.007" style="fill:rgb(252,252,237);"/>
                    </g>
                    <g transform="matrix(1,0,0,1,38732.430273,4444.49822)">
                        <circle cx="499.375" cy="746.392" r="134.007" style="fill:rgb(252,252,237);"/>
                    </g>
                    <g transform="matrix(1,0,0,1,38397.243465,3453.822831)">
                        <circle cx="499.375" cy="746.392" r="134.007" style="fill:rgb(252,252,237);"/>
                    </g>
                    <g transform="matrix(1,0,0,1,43089.858776,3453.822831)">
                        <circle cx="499.375" cy="746.392" r="134.007" style="fill:rgb(252,252,237);"/>
                    </g>
                    <g transform="matrix(1,0,0,1,42754.671968,3453.822831)">
                        <circle cx="499.375" cy="746.392" r="134.007" style="fill:rgb(252,252,237);"/>
                    </g>
                    <g transform="matrix(1,0,0,1,42419.48516,3453.822831)">
                        <circle cx="499.375" cy="746.392" r="134.007" style="fill:rgb(252,252,237);"/>
                    </g>
                    <g transform="matrix(1,0,0,1,42084.298352,3453.822831)">
                        <circle cx="499.375" cy="746.392" r="134.007" style="fill:rgb(252,252,237);"/>
                    </g>
                    <g transform="matrix(1,0,0,1,41749.111544,3453.822831)">
                        <circle cx="499.375" cy="746.392" r="134.007" style="fill:rgb(252,252,237);"/>
                    </g>
                    <g transform="matrix(1,0,0,1,41413.924736,3453.822831)">
                        <circle cx="499.375" cy="746.392" r="134.007" style="fill:rgb(252,252,237);"/>
                    </g>
                    <g transform="matrix(1,0,0,1,41078.737928,3453.822831)">
                        <circle cx="499.375" cy="746.392" r="134.007" style="fill:rgb(252,252,237);"/>
                    </g>
                    <g transform="matrix(1,0,0,1,40743.55112,3453.822831)">
                        <circle cx="499.375" cy="746.392" r="134.007" style="fill:rgb(252,252,237);"/>
                    </g>
                    <g transform="matrix(1,0,0,1,40408.364313,3453.822831)">
                        <circle cx="499.375" cy="746.392" r="134.007" style="fill:rgb(252,252,237);"/>
                    </g>
                    <g transform="matrix(1,0,0,1,40073.177505,3453.822831)">
                        <circle cx="499.375" cy="746.392" r="134.007" style="fill:rgb(252,252,237);"/>
                    </g>
                    <g transform="matrix(1,0,0,1,39737.990697,3453.822831)">
                        <circle cx="499.375" cy="746.392" r="134.007" style="fill:rgb(252,252,237);"/>
                    </g>
                    <g transform="matrix(1,0,0,1,39402.803889,3453.822831)">
                        <circle cx="499.375" cy="746.392" r="134.007" style="fill:rgb(252,252,237);"/>
                    </g>
                    <g transform="matrix(1,0,0,1,39067.617081,3453.822831)">
                        <circle cx="499.375" cy="746.392" r="134.007" style="fill:rgb(252,252,237);"/>
                    </g>
                    <g transform="matrix(1,0,0,1,38732.430273,3453.822831)">
                        <circle cx="499.375" cy="746.392" r="134.007" style="fill:rgb(252,252,237);"/>
                    </g>
                    <g transform="matrix(1,0,0,1,38397.243465,5104.94848)">
                        <circle cx="499.375" cy="746.392" r="134.007" style="fill:rgb(252,252,237);"/>
                    </g>
                    <g transform="matrix(1,0,0,1,43089.858776,5104.94848)">
                        <circle cx="499.375" cy="746.392" r="134.007" style="fill:rgb(252,252,237);"/>
                    </g>
                    <g transform="matrix(1,0,0,1,42754.671968,5104.94848)">
                        <circle cx="499.375" cy="746.392" r="134.007" style="fill:rgb(252,252,237);"/>
                    </g>
                    <g transform="matrix(1,0,0,1,42419.48516,5104.94848)">
                        <circle cx="499.375" cy="746.392" r="134.007" style="fill:rgb(252,252,237);"/>
                    </g>
                    <g transform="matrix(1,0,0,1,42084.298352,5104.94848)">
                        <circle cx="499.375" cy="746.392" r="134.007" style="fill:rgb(252,252,237);"/>
                    </g>
                    <g transform="matrix(1,0,0,1,41749.111544,5104.94848)">
                        <circle cx="499.375" cy="746.392" r="134.007" style="fill:rgb(252,252,237);"/>
                    </g>
                    <g transform="matrix(1,0,0,1,41413.924736,5104.94848)">
                        <circle cx="499.375" cy="746.392" r="134.007" style="fill:rgb(252,252,237);"/>
                    </g>
                    <g transform="matrix(1,0,0,1,41078.737928,5104.94848)">
                        <circle cx="499.375" cy="746.392" r="134.007" style="fill:rgb(252,252,237);"/>
                    </g>
                    <g transform="matrix(1,0,0,1,40743.55112,5104.94848)">
                        <circle cx="499.375" cy="746.392" r="134.007" style="fill:rgb(252,252,237);"/>
                    </g>
                    <g transform="matrix(1,0,0,1,40408.364313,5104.94848)">
                        <circle cx="499.375" cy="746.392" r="134.007" style="fill:rgb(252,252,237);"/>
                    </g>
                    <g transform="matrix(1,0,0,1,40073.177505,5104.94848)">
                        <circle cx="499.375" cy="746.392" r="134.007" style="fill:rgb(252,252,237);"/>
                    </g>
                    <g transform="matrix(1,0,0,1,39737.990697,5104.94848)">
                        <circle cx="499.375" cy="746.392" r="134.007" style="fill:rgb(252,252,237);"/>
                    </g>
                    <g transform="matrix(1,0,0,1,39402.803889,5104.94848)">
                        <circle cx="499.375" cy="746.392" r="134.007" style="fill:rgb(252,252,237);"/>
                    </g>
                    <g transform="matrix(1,0,0,1,39067.617081,5104.94848)">
                        <circle cx="499.375" cy="746.392" r="134.007" style="fill:rgb(252,252,237);"/>
                    </g>
                    <g transform="matrix(1,0,0,1,38732.430273,5104.94848)">
                        <circle cx="499.375" cy="746.392" r="134.007" style="fill:rgb(252,252,237);"/>
                    </g>
                    <g transform="matrix(1,0,0,1,38397.243465,4114.27309)">
                        <circle cx="499.375" cy="746.392" r="134.007" style="fill:rgb(252,252,237);"/>
                    </g>
                    <g transform="matrix(1,0,0,1,43089.858776,4114.27309)">
                        <circle cx="499.375" cy="746.392" r="134.007" style="fill:rgb(252,252,237);"/>
                    </g>
                    <g transform="matrix(1,0,0,1,42754.671968,4114.27309)">
                        <circle cx="499.375" cy="746.392" r="134.007" style="fill:rgb(252,252,237);"/>
                    </g>
                    <g transform="matrix(1,0,0,1,42419.48516,4114.27309)">
                        <circle cx="499.375" cy="746.392" r="134.007" style="fill:rgb(252,252,237);"/>
                    </g>
                    <g transform="matrix(1,0,0,1,42084.298352,4114.27309)">
                        <circle cx="499.375" cy="746.392" r="134.007" style="fill:rgb(252,252,237);"/>
                    </g>
                    <g transform="matrix(1,0,0,1,41749.111544,4114.27309)">
                        <circle cx="499.375" cy="746.392" r="134.007" style="fill:rgb(252,252,237);"/>
                    </g>
                    <g transform="matrix(1,0,0,1,41413.924736,4114.27309)">
                        <circle cx="499.375" cy="746.392" r="134.007" style="fill:rgb(252,252,237);"/>
                    </g>
                    <g transform="matrix(1,0,0,1,41078.737928,4114.27309)">
                        <circle cx="499.375" cy="746.392" r="134.007" style="fill:rgb(252,252,237);"/>
                    </g>
                    <g transform="matrix(1,0,0,1,40743.55112,4114.27309)">
                        <circle cx="499.375" cy="746.392" r="134.007" style="fill:rgb(252,252,237);"/>
                    </g>
                    <g transform="matrix(1,0,0,1,40408.364313,4114.27309)">
                        <circle cx="499.375" cy="746.392" r="134.007" style="fill:rgb(252,252,237);"/>
                    </g>
                    <g transform="matrix(1,0,0,1,40073.177505,4114.27309)">
                        <circle cx="499.375" cy="746.392" r="134.007" style="fill:rgb(252,252,237);"/>
                    </g>
                    <g transform="matrix(1,0,0,1,39737.990697,4114.27309)">
                        <circle cx="499.375" cy="746.392" r="134.007" style="fill:rgb(252,252,237);"/>
                    </g>
                    <g transform="matrix(1,0,0,1,39402.803889,4114.27309)">
                        <circle cx="499.375" cy="746.392" r="134.007" style="fill:rgb(252,252,237);"/>
                    </g>
                    <g transform="matrix(1,0,0,1,39067.617081,4114.27309)">
                        <circle cx="499.375" cy="746.392" r="134.007" style="fill:rgb(252,252,237);"/>
                    </g>
                    <g transform="matrix(1,0,0,1,38732.430273,4114.27309)">
                        <circle cx="499.375" cy="746.392" r="134.007" style="fill:rgb(252,252,237);"/>
                    </g>
                    <g transform="matrix(1,0,0,1,38397.243465,3784.04796)">
                        <circle cx="499.375" cy="746.392" r="134.007" style="fill:rgb(252,252,237);"/>
                    </g>
                    <g transform="matrix(1,0,0,1,43089.858776,3784.04796)">
                        <circle cx="499.375" cy="746.392" r="134.007" style="fill:rgb(252,252,237);"/>
                    </g>
                    <g transform="matrix(1,0,0,1,42754.671968,3784.04796)">
                        <circle cx="499.375" cy="746.392" r="134.007" style="fill:rgb(252,252,237);"/>
                    </g>
                    <g transform="matrix(1,0,0,1,42419.48516,3784.04796)">
                        <circle cx="499.375" cy="746.392" r="134.007" style="fill:rgb(252,252,237);"/>
                    </g>
                    <g transform="matrix(1,0,0,1,42084.298352,3784.04796)">
                        <circle cx="499.375" cy="746.392" r="134.007" style="fill:rgb(252,252,237);"/>
                    </g>
                    <g transform="matrix(1,0,0,1,41749.111544,3784.04796)">
                        <circle cx="499.375" cy="746.392" r="134.007" style="fill:rgb(252,252,237);"/>
                    </g>
                    <g transform="matrix(1,0,0,1,41413.924736,3784.04796)">
                        <circle cx="499.375" cy="746.392" r="134.007" style="fill:rgb(252,252,237);"/>
                    </g>
                    <g transform="matrix(1,0,0,1,41078.737928,3784.04796)">
                        <circle cx="499.375" cy="746.392" r="134.007" style="fill:rgb(252,252,237);"/>
                    </g>
                    <g transform="matrix(1,0,0,1,40743.55112,3784.04796)">
                        <circle cx="499.375" cy="746.392" r="134.007" style="fill:rgb(252,252,237);"/>
                    </g>
                    <g transform="matrix(1,0,0,1,40408.364313,3784.04796)">
                        <circle cx="499.375" cy="746.392" r="134.007" style="fill:rgb(252,252,237);"/>
                    </g>
                    <g transform="matrix(1,0,0,1,40073.177505,3784.04796)">
                        <circle cx="499.375" cy="746.392" r="134.007" style="fill:rgb(252,252,237);"/>
                    </g>
                    <g transform="matrix(1,0,0,1,39737.990697,3784.04796)">
                        <circle cx="499.375" cy="746.392" r="134.007" style="fill:rgb(252,252,237);"/>
                    </g>
                    <g transform="matrix(1,0,0,1,39402.803889,3784.04796)">
                        <circle cx="499.375" cy="746.392" r="134.007" style="fill:rgb(252,252,237);"/>
                    </g>
                    <g transform="matrix(1,0,0,1,39067.617081,3784.04796)">
                        <circle cx="499.375" cy="746.392" r="134.007" style="fill:rgb(252,252,237);"/>
                    </g>
                    <g transform="matrix(1,0,0,1,38732.430273,3784.04796)">
                        <circle cx="499.375" cy="746.392" r="134.007" style="fill:rgb(252,252,237);"/>
                    </g>
                    <g transform="matrix(1,0,0,1,38397.243465,4774.72335)">
                        <circle cx="499.375" cy="746.392" r="134.007" style="fill:rgb(252,252,237);"/>
                    </g>
                    <g transform="matrix(1,0,0,1,43089.858776,4774.72335)">
                        <circle cx="499.375" cy="746.392" r="134.007" style="fill:rgb(252,252,237);"/>
                    </g>
                    <g transform="matrix(1,0,0,1,42754.671968,4774.72335)">
                        <circle cx="499.375" cy="746.392" r="134.007" style="fill:rgb(252,252,237);"/>
                    </g>
                    <g transform="matrix(1,0,0,1,42419.48516,4774.72335)">
                        <circle cx="499.375" cy="746.392" r="134.007" style="fill:rgb(252,252,237);"/>
                    </g>
                    <g transform="matrix(1,0,0,1,42084.298352,4774.72335)">
                        <circle cx="499.375" cy="746.392" r="134.007" style="fill:rgb(252,252,237);"/>
                    </g>
                    <g transform="matrix(1,0,0,1,41749.111544,4774.72335)">
                        <circle cx="499.375" cy="746.392" r="134.007" style="fill:rgb(252,252,237);"/>
                    </g>
                    <g transform="matrix(1,0,0,1,41413.924736,4774.72335)">
                        <circle cx="499.375" cy="746.392" r="134.007" style="fill:rgb(252,252,237);"/>
                    </g>
                    <g transform="matrix(1,0,0,1,41078.737928,4774.72335)">
                        <circle cx="499.375" cy="746.392" r="134.007" style="fill:rgb(252,252,237);"/>
                    </g>
                    <g transform="matrix(1,0,0,1,40743.55112,4774.72335)">
                        <circle cx="499.375" cy="746.392" r="134.007" style="fill:rgb(252,252,237);"/>
                    </g>
                    <g transform="matrix(1,0,0,1,40408.364313,4774.72335)">
                        <circle cx="499.375" cy="746.392" r="134.007" style="fill:rgb(252,252,237);"/>
                    </g>
                    <g transform="matrix(1,0,0,1,40073.177505,4774.72335)">
                        <circle cx="499.375" cy="746.392" r="134.007" style="fill:rgb(252,252,237);"/>
                    </g>
                    <g transform="matrix(1,0,0,1,39737.990697,4774.72335)">
                        <circle cx="499.375" cy="746.392" r="134.007" style="fill:rgb(252,252,237);"/>
                    </g>
                    <g transform="matrix(1,0,0,1,39402.803889,4774.72335)">
                        <circle cx="499.375" cy="746.392" r="134.007" style="fill:rgb(252,252,237);"/>
                    </g>
                    <g transform="matrix(1,0,0,1,39067.617081,4774.72335)">
                        <circle cx="499.375" cy="746.392" r="134.007" style="fill:rgb(252,252,237);"/>
                    </g>
                    <g transform="matrix(1,0,0,1,38732.430273,4774.72335)">
                        <circle cx="499.375" cy="746.392" r="134.007" style="fill:rgb(252,252,237);"/>
                    </g>
                </g>
            </g>
        </g>
    </g>
</svg>
