<?xml version="1.0" encoding="UTF-8" standalone="no"?><!DOCTYPE svg PUBLIC "-//W3C//DTD SVG 1.1//EN" "http://www.w3.org/Graphics/SVG/1.1/DTD/svg11.dtd"><svg width="100%" height="100%" viewBox="0 0 284 284" version="1.1" xmlns="http://www.w3.org/2000/svg" xmlns:xlink="http://www.w3.org/1999/xlink" xml:space="preserve" xmlns:serif="http://www.serif.com/" style="fill-rule:evenodd;clip-rule:evenodd;stroke-linejoin:round;stroke-miterlimit:2;"><rect id="Artboard1" x="0" y="0" width="283.465" height="283.465" style="fill:none;"/><clipPath id="_clip1"><rect x="0" y="0" width="283.465" height="283.465"/></clipPath><g clip-path="url(#_clip1)"><g><g><rect x="-7.087" y="-7.087" width="14.173" height="14.173" style="fill:#3e3e33;"/><rect x="0" y="-14.173" width="14.173" height="14.173" style="fill:#3e3e33;"/><rect x="-14.173" y="-0" width="14.173" height="14.173" style="fill:#3e3e33;"/></g><g><rect x="262.205" y="276.378" width="14.173" height="14.173" style="fill:#3e3e33;"/><rect x="269.291" y="269.291" width="14.173" height="14.173" style="fill:#3e3e33;"/><rect x="276.423" y="262.205" width="14.173" height="14.173" style="fill:#3e3e33;"/><rect x="255.118" y="283.465" width="14.173" height="14.173" style="fill:#3e3e33;"/></g><g><rect x="7.087" y="21.26" width="14.173" height="14.173" style="fill:#3e3e33;"/><rect x="14.173" y="14.173" width="14.173" height="14.173" style="fill:#3e3e33;"/><rect x="21.26" y="7.087" width="14.173" height="14.173" style="fill:#3e3e33;"/><rect x="28.346" y="-0" width="14.173" height="14.173" style="fill:#3e3e33;"/><rect x="35.433" y="-7.087" width="14.173" height="14.173" style="fill:#3e3e33;"/><rect x="0" y="28.346" width="14.173" height="14.173" style="fill:#3e3e33;"/><rect x="-7.087" y="35.433" width="14.173" height="14.173" style="fill:#3e3e33;"/></g><g><rect x="14.173" y="56.693" width="14.173" height="14.173" style="fill:#3e3e33;"/><rect x="21.26" y="49.606" width="14.173" height="14.173" style="fill:#3e3e33;"/><rect x="28.346" y="42.52" width="14.173" height="14.173" style="fill:#3e3e33;"/><rect x="35.433" y="35.433" width="14.173" height="14.173" style="fill:#3e3e33;"/><rect x="42.52" y="28.346" width="14.173" height="14.173" style="fill:#3e3e33;"/><rect x="49.606" y="21.26" width="14.173" height="14.173" style="fill:#3e3e33;"/><rect x="56.693" y="14.173" width="14.173" height="14.173" style="fill:#3e3e33;"/><rect x="63.78" y="7.087" width="14.173" height="14.173" style="fill:#3e3e33;"/><rect x="70.866" y="0" width="14.173" height="14.173" style="fill:#3e3e33;"/><rect x="77.953" y="-7.087" width="14.173" height="14.173" style="fill:#3e3e33;"/><rect x="7.087" y="63.78" width="14.173" height="14.173" style="fill:#3e3e33;"/><rect x="0" y="70.866" width="14.173" height="14.173" style="fill:#3e3e33;"/><rect x="-7.087" y="77.953" width="14.173" height="14.173" style="fill:#3e3e33;"/></g><g><rect x="212.598" y="283.465" width="14.173" height="14.173" style="fill:#3e3e33;"/><rect x="219.685" y="276.378" width="14.173" height="14.173" style="fill:#3e3e33;"/><rect x="226.772" y="269.291" width="14.173" height="14.173" style="fill:#3e3e33;"/><rect x="233.858" y="262.205" width="14.173" height="14.173" style="fill:#3e3e33;"/><rect x="240.945" y="255.118" width="14.173" height="14.173" style="fill:#3e3e33;"/><rect x="248.031" y="248.031" width="14.173" height="14.173" style="fill:#3e3e33;"/><rect x="255.118" y="240.945" width="14.173" height="14.173" style="fill:#3e3e33;"/><rect x="262.205" y="233.858" width="14.173" height="14.173" style="fill:#3e3e33;"/><rect x="269.291" y="226.772" width="14.173" height="14.173" style="fill:#3e3e33;"/><rect x="276.378" y="219.685" width="14.173" height="14.173" style="fill:#3e3e33;"/></g><g><rect x="49.606" y="63.78" width="14.173" height="14.173" style="fill:#3e3e33;"/><rect x="56.693" y="56.693" width="14.173" height="14.173" style="fill:#3e3e33;"/><rect x="63.78" y="49.606" width="14.173" height="14.173" style="fill:#3e3e33;"/><rect x="70.866" y="42.52" width="14.173" height="14.173" style="fill:#3e3e33;"/><rect x="77.953" y="35.433" width="14.173" height="14.173" style="fill:#3e3e33;"/><rect x="85.039" y="28.346" width="14.173" height="14.173" style="fill:#3e3e33;"/><rect x="92.126" y="21.26" width="14.173" height="14.173" style="fill:#3e3e33;"/><rect x="99.213" y="14.173" width="14.173" height="14.173" style="fill:#3e3e33;"/><rect x="106.299" y="7.087" width="14.173" height="14.173" style="fill:#3e3e33;"/><rect x="113.386" y="0" width="14.173" height="14.173" style="fill:#3e3e33;"/><rect x="120.472" y="-7.087" width="14.173" height="14.173" style="fill:#3e3e33;"/><rect x="42.52" y="70.866" width="14.173" height="14.173" style="fill:#3e3e33;"/><rect x="35.433" y="77.953" width="14.173" height="14.173" style="fill:#3e3e33;"/><rect x="28.346" y="85.039" width="14.173" height="14.173" style="fill:#3e3e33;"/><rect x="21.26" y="92.126" width="14.173" height="14.173" style="fill:#3e3e33;"/><rect x="14.173" y="99.213" width="14.173" height="14.173" style="fill:#3e3e33;"/><rect x="7.087" y="106.299" width="14.173" height="14.173" style="fill:#3e3e33;"/><rect x="0" y="113.386" width="14.173" height="14.173" style="fill:#3e3e33;"/><rect x="-7.087" y="120.472" width="14.173" height="14.173" style="fill:#3e3e33;"/></g><g><rect x="85.039" y="70.866" width="14.173" height="14.173" style="fill:#3e3e33;"/><rect x="92.126" y="63.78" width="14.173" height="14.173" style="fill:#3e3e33;"/><rect x="99.213" y="56.693" width="14.173" height="14.173" style="fill:#3e3e33;"/><rect x="106.299" y="49.606" width="14.173" height="14.173" style="fill:#3e3e33;"/><rect x="113.386" y="42.52" width="14.173" height="14.173" style="fill:#3e3e33;"/><rect x="120.472" y="35.433" width="14.173" height="14.173" style="fill:#3e3e33;"/><rect x="127.559" y="28.346" width="14.173" height="14.173" style="fill:#3e3e33;"/><rect x="134.646" y="21.26" width="14.173" height="14.173" style="fill:#3e3e33;"/><rect x="141.732" y="14.173" width="14.173" height="14.173" style="fill:#3e3e33;"/><rect x="148.819" y="7.087" width="14.173" height="14.173" style="fill:#3e3e33;"/><rect x="155.906" y="0" width="14.173" height="14.173" style="fill:#3e3e33;"/><rect x="162.992" y="-7.087" width="14.173" height="14.173" style="fill:#3e3e33;"/><rect x="77.953" y="77.953" width="14.173" height="14.173" style="fill:#3e3e33;"/><rect x="70.866" y="85.039" width="14.173" height="14.173" style="fill:#3e3e33;"/><rect x="63.78" y="92.126" width="14.173" height="14.173" style="fill:#3e3e33;"/><rect x="56.693" y="99.213" width="14.173" height="14.173" style="fill:#3e3e33;"/><rect x="49.606" y="106.299" width="14.173" height="14.173" style="fill:#3e3e33;"/><rect x="42.52" y="113.386" width="14.173" height="14.173" style="fill:#3e3e33;"/><rect x="35.433" y="120.472" width="14.173" height="14.173" style="fill:#3e3e33;"/><rect x="28.346" y="127.559" width="14.173" height="14.173" style="fill:#3e3e33;"/><rect x="21.26" y="134.646" width="14.173" height="14.173" style="fill:#3e3e33;"/><rect x="14.173" y="141.732" width="14.173" height="14.173" style="fill:#3e3e33;"/><rect x="7.087" y="148.819" width="14.173" height="14.173" style="fill:#3e3e33;"/><rect x="0" y="155.906" width="14.173" height="14.173" style="fill:#3e3e33;"/><rect x="-7.087" y="162.992" width="14.173" height="14.173" style="fill:#3e3e33;"/></g><g><rect x="219.685" y="191.339" width="14.173" height="14.173" style="fill:#3e3e33;"/><rect x="226.772" y="184.252" width="14.173" height="14.173" style="fill:#3e3e33;"/><rect x="233.858" y="177.165" width="14.173" height="14.173" style="fill:#3e3e33;"/><rect x="240.945" y="170.079" width="14.173" height="14.173" style="fill:#3e3e33;"/><rect x="248.031" y="162.992" width="14.173" height="14.173" style="fill:#3e3e33;"/><rect x="255.118" y="155.906" width="14.173" height="14.173" style="fill:#3e3e33;"/><rect x="262.205" y="148.819" width="14.173" height="14.173" style="fill:#3e3e33;"/><rect x="269.291" y="141.732" width="14.173" height="14.173" style="fill:#3e3e33;"/><rect x="276.378" y="134.646" width="14.173" height="14.173" style="fill:#3e3e33;"/><rect x="283.465" y="127.559" width="14.173" height="14.173" style="fill:#3e3e33;"/><rect x="212.598" y="198.425" width="14.173" height="14.173" style="fill:#3e3e33;"/><rect x="205.512" y="205.512" width="14.173" height="14.173" style="fill:#3e3e33;"/><rect x="198.425" y="212.598" width="14.173" height="14.173" style="fill:#3e3e33;"/><rect x="191.339" y="219.685" width="14.173" height="14.173" style="fill:#3e3e33;"/><rect x="184.252" y="226.772" width="14.173" height="14.173" style="fill:#3e3e33;"/><rect x="177.165" y="233.858" width="14.173" height="14.173" style="fill:#3e3e33;"/><rect x="170.079" y="240.945" width="14.173" height="14.173" style="fill:#3e3e33;"/><rect x="162.992" y="248.031" width="14.173" height="14.173" style="fill:#3e3e33;"/><rect x="155.906" y="255.118" width="14.173" height="14.173" style="fill:#3e3e33;"/><rect x="148.819" y="262.205" width="14.173" height="14.173" style="fill:#3e3e33;"/><rect x="141.732" y="269.291" width="14.173" height="14.173" style="fill:#3e3e33;"/><rect x="134.646" y="276.378" width="14.173" height="14.173" style="fill:#3e3e33;"/><rect x="127.559" y="283.465" width="14.173" height="14.173" style="fill:#3e3e33;"/></g><g><rect x="240.945" y="212.598" width="14.173" height="14.173" style="fill:#3e3e33;"/><rect x="248.031" y="205.512" width="14.173" height="14.173" style="fill:#3e3e33;"/><rect x="255.118" y="198.425" width="14.173" height="14.173" style="fill:#3e3e33;"/><rect x="262.205" y="191.339" width="14.173" height="14.173" style="fill:#3e3e33;"/><rect x="269.291" y="184.252" width="14.173" height="14.173" style="fill:#3e3e33;"/><rect x="276.378" y="177.165" width="14.173" height="14.173" style="fill:#3e3e33;"/><rect x="283.465" y="170.079" width="14.173" height="14.173" style="fill:#3e3e33;"/><rect x="233.858" y="219.685" width="14.173" height="14.173" style="fill:#3e3e33;"/><rect x="226.772" y="226.772" width="14.173" height="14.173" style="fill:#3e3e33;"/><rect x="219.685" y="233.858" width="14.173" height="14.173" style="fill:#3e3e33;"/><rect x="212.598" y="240.945" width="14.173" height="14.173" style="fill:#3e3e33;"/><rect x="205.512" y="248.031" width="14.173" height="14.173" style="fill:#3e3e33;"/><rect x="198.425" y="255.118" width="14.173" height="14.173" style="fill:#3e3e33;"/><rect x="191.339" y="262.205" width="14.173" height="14.173" style="fill:#3e3e33;"/><rect x="184.252" y="269.291" width="14.173" height="14.173" style="fill:#3e3e33;"/><rect x="177.165" y="276.378" width="14.173" height="14.173" style="fill:#3e3e33;"/><rect x="170.079" y="283.465" width="14.173" height="14.173" style="fill:#3e3e33;"/></g><g><rect x="120.472" y="77.953" width="14.173" height="14.173" style="fill:#3e3e33;"/><rect x="127.559" y="70.866" width="14.173" height="14.173" style="fill:#3e3e33;"/><rect x="134.646" y="63.78" width="14.173" height="14.173" style="fill:#3e3e33;"/><rect x="141.732" y="56.693" width="14.173" height="14.173" style="fill:#3e3e33;"/><rect x="148.819" y="49.606" width="14.173" height="14.173" style="fill:#3e3e33;"/><rect x="155.906" y="42.52" width="14.173" height="14.173" style="fill:#3e3e33;"/><rect x="162.992" y="35.433" width="14.173" height="14.173" style="fill:#3e3e33;"/><rect x="170.079" y="28.346" width="14.173" height="14.173" style="fill:#3e3e33;"/><rect x="177.165" y="21.26" width="14.173" height="14.173" style="fill:#3e3e33;"/><rect x="184.252" y="14.173" width="14.173" height="14.173" style="fill:#3e3e33;"/><rect x="191.339" y="7.087" width="14.173" height="14.173" style="fill:#3e3e33;"/><rect x="198.425" y="0" width="14.173" height="14.173" style="fill:#3e3e33;"/><rect x="205.512" y="-7.087" width="14.173" height="14.173" style="fill:#3e3e33;"/><rect x="113.386" y="85.039" width="14.173" height="14.173" style="fill:#3e3e33;"/><rect x="106.299" y="92.126" width="14.173" height="14.173" style="fill:#3e3e33;"/><rect x="99.213" y="99.213" width="14.173" height="14.173" style="fill:#3e3e33;"/><rect x="92.126" y="106.299" width="14.173" height="14.173" style="fill:#3e3e33;"/><rect x="85.039" y="113.386" width="14.173" height="14.173" style="fill:#3e3e33;"/><rect x="77.953" y="120.472" width="14.173" height="14.173" style="fill:#3e3e33;"/><rect x="70.866" y="127.559" width="14.173" height="14.173" style="fill:#3e3e33;"/><rect x="63.78" y="134.646" width="14.173" height="14.173" style="fill:#3e3e33;"/><rect x="56.693" y="141.732" width="14.173" height="14.173" style="fill:#3e3e33;"/><rect x="49.606" y="148.819" width="14.173" height="14.173" style="fill:#3e3e33;"/><rect x="42.52" y="155.906" width="14.173" height="14.173" style="fill:#3e3e33;"/><rect x="35.433" y="162.992" width="14.173" height="14.173" style="fill:#3e3e33;"/><rect x="28.346" y="170.079" width="14.173" height="14.173" style="fill:#3e3e33;"/><rect x="21.26" y="177.165" width="14.173" height="14.173" style="fill:#3e3e33;"/><rect x="14.173" y="184.252" width="14.173" height="14.173" style="fill:#3e3e33;"/><rect x="7.087" y="191.339" width="14.173" height="14.173" style="fill:#3e3e33;"/><rect x="0" y="198.425" width="14.173" height="14.173" style="fill:#3e3e33;"/><rect x="-7.087" y="205.512" width="14.173" height="14.173" style="fill:#3e3e33;"/></g><g><rect x="212.598" y="155.906" width="14.173" height="14.173" style="fill:#3e3e33;"/><rect x="219.685" y="148.819" width="14.173" height="14.173" style="fill:#3e3e33;"/><rect x="226.772" y="141.732" width="14.173" height="14.173" style="fill:#3e3e33;"/><rect x="233.858" y="134.646" width="14.173" height="14.173" style="fill:#3e3e33;"/><rect x="240.945" y="127.559" width="14.173" height="14.173" style="fill:#3e3e33;"/><rect x="248.031" y="120.472" width="14.173" height="14.173" style="fill:#3e3e33;"/><rect x="255.118" y="113.386" width="14.173" height="14.173" style="fill:#3e3e33;"/><rect x="262.205" y="106.299" width="14.173" height="14.173" style="fill:#3e3e33;"/><rect x="269.291" y="99.213" width="14.173" height="14.173" style="fill:#3e3e33;"/><rect x="276.378" y="92.126" width="14.173" height="14.173" style="fill:#3e3e33;"/><rect x="283.465" y="85.039" width="14.173" height="14.173" style="fill:#3e3e33;"/><rect x="205.512" y="162.992" width="14.173" height="14.173" style="fill:#3e3e33;"/><rect x="198.425" y="170.079" width="14.173" height="14.173" style="fill:#3e3e33;"/><rect x="191.339" y="177.165" width="14.173" height="14.173" style="fill:#3e3e33;"/><rect x="184.252" y="184.252" width="14.173" height="14.173" style="fill:#3e3e33;"/><rect x="177.165" y="191.339" width="14.173" height="14.173" style="fill:#3e3e33;"/><rect x="170.079" y="198.425" width="14.173" height="14.173" style="fill:#3e3e33;"/><rect x="162.992" y="205.512" width="14.173" height="14.173" style="fill:#3e3e33;"/><rect x="155.906" y="212.598" width="14.173" height="14.173" style="fill:#3e3e33;"/><rect x="148.819" y="219.685" width="14.173" height="14.173" style="fill:#3e3e33;"/><rect x="141.732" y="226.772" width="14.173" height="14.173" style="fill:#3e3e33;"/><rect x="134.646" y="233.858" width="14.173" height="14.173" style="fill:#3e3e33;"/><rect x="127.559" y="240.945" width="14.173" height="14.173" style="fill:#3e3e33;"/><rect x="120.472" y="248.031" width="14.173" height="14.173" style="fill:#3e3e33;"/><rect x="113.386" y="255.118" width="14.173" height="14.173" style="fill:#3e3e33;"/><rect x="106.299" y="262.205" width="14.173" height="14.173" style="fill:#3e3e33;"/><rect x="99.213" y="269.291" width="14.173" height="14.173" style="fill:#3e3e33;"/><rect x="92.126" y="276.378" width="14.173" height="14.173" style="fill:#3e3e33;"/><rect x="85.039" y="283.465" width="14.173" height="14.173" style="fill:#3e3e33;"/></g><g><rect x="155.906" y="85.039" width="14.173" height="14.173" style="fill:#3e3e33;"/><rect x="162.992" y="77.953" width="14.173" height="14.173" style="fill:#3e3e33;"/><rect x="170.079" y="70.866" width="14.173" height="14.173" style="fill:#3e3e33;"/><rect x="177.165" y="63.78" width="14.173" height="14.173" style="fill:#3e3e33;"/><rect x="184.252" y="56.693" width="14.173" height="14.173" style="fill:#3e3e33;"/><rect x="191.339" y="49.606" width="14.173" height="14.173" style="fill:#3e3e33;"/><rect x="198.425" y="42.52" width="14.173" height="14.173" style="fill:#3e3e33;"/><rect x="205.512" y="35.433" width="14.173" height="14.173" style="fill:#3e3e33;"/><rect x="212.598" y="28.346" width="14.173" height="14.173" style="fill:#3e3e33;"/><rect x="219.685" y="21.26" width="14.173" height="14.173" style="fill:#3e3e33;"/><rect x="226.772" y="14.173" width="14.173" height="14.173" style="fill:#3e3e33;"/><rect x="233.858" y="7.087" width="14.173" height="14.173" style="fill:#3e3e33;"/><rect x="240.945" y="-0" width="14.173" height="14.173" style="fill:#3e3e33;"/><rect x="248.031" y="-7.087" width="14.173" height="14.173" style="fill:#3e3e33;"/><rect x="148.819" y="92.126" width="14.173" height="14.173" style="fill:#3e3e33;"/><rect x="141.732" y="99.213" width="14.173" height="14.173" style="fill:#3e3e33;"/><rect x="134.646" y="106.299" width="14.173" height="14.173" style="fill:#3e3e33;"/><rect x="127.559" y="113.386" width="14.173" height="14.173" style="fill:#3e3e33;"/><rect x="120.472" y="120.472" width="14.173" height="14.173" style="fill:#3e3e33;"/><rect x="113.386" y="127.559" width="14.173" height="14.173" style="fill:#3e3e33;"/><rect x="106.299" y="134.646" width="14.173" height="14.173" style="fill:#3e3e33;"/><rect x="99.213" y="141.732" width="14.173" height="14.173" style="fill:#3e3e33;"/><rect x="92.126" y="148.819" width="14.173" height="14.173" style="fill:#3e3e33;"/><rect x="85.039" y="155.906" width="14.173" height="14.173" style="fill:#3e3e33;"/><rect x="77.953" y="162.992" width="14.173" height="14.173" style="fill:#3e3e33;"/><rect x="70.866" y="170.079" width="14.173" height="14.173" style="fill:#3e3e33;"/><rect x="63.78" y="177.165" width="14.173" height="14.173" style="fill:#3e3e33;"/><rect x="56.693" y="184.252" width="14.173" height="14.173" style="fill:#3e3e33;"/><rect x="49.606" y="191.339" width="14.173" height="14.173" style="fill:#3e3e33;"/><rect x="42.52" y="198.425" width="14.173" height="14.173" style="fill:#3e3e33;"/><rect x="35.433" y="205.512" width="14.173" height="14.173" style="fill:#3e3e33;"/><rect x="28.346" y="212.598" width="14.173" height="14.173" style="fill:#3e3e33;"/><rect x="21.26" y="219.685" width="14.173" height="14.173" style="fill:#3e3e33;"/><rect x="14.173" y="226.772" width="14.173" height="14.173" style="fill:#3e3e33;"/><rect x="7.087" y="233.858" width="14.173" height="14.173" style="fill:#3e3e33;"/><rect x="0" y="240.945" width="14.173" height="14.173" style="fill:#3e3e33;"/><rect x="-7.087" y="248.031" width="14.173" height="14.173" style="fill:#3e3e33;"/></g><g><rect x="177.165" y="106.299" width="14.173" height="14.173" style="fill:#3e3e33;"/><rect x="184.252" y="99.213" width="14.173" height="14.173" style="fill:#3e3e33;"/><rect x="191.339" y="92.126" width="14.173" height="14.173" style="fill:#3e3e33;"/><rect x="198.425" y="85.039" width="14.173" height="14.173" style="fill:#3e3e33;"/><rect x="205.512" y="77.953" width="14.173" height="14.173" style="fill:#3e3e33;"/><rect x="212.598" y="70.866" width="14.173" height="14.173" style="fill:#3e3e33;"/><rect x="219.685" y="63.78" width="14.173" height="14.173" style="fill:#3e3e33;"/><rect x="226.772" y="56.693" width="14.173" height="14.173" style="fill:#3e3e33;"/><rect x="233.858" y="49.606" width="14.173" height="14.173" style="fill:#3e3e33;"/><rect x="240.945" y="42.52" width="14.173" height="14.173" style="fill:#3e3e33;"/><rect x="248.031" y="35.433" width="14.173" height="14.173" style="fill:#3e3e33;"/><rect x="255.118" y="28.346" width="14.173" height="14.173" style="fill:#3e3e33;"/><rect x="262.205" y="21.26" width="14.173" height="14.173" style="fill:#3e3e33;"/><rect x="269.291" y="14.173" width="14.173" height="14.173" style="fill:#3e3e33;"/><rect x="276.378" y="7.087" width="14.173" height="14.173" style="fill:#3e3e33;"/><rect x="170.079" y="113.386" width="14.173" height="14.173" style="fill:#3e3e33;"/><rect x="162.992" y="120.472" width="14.173" height="14.173" style="fill:#3e3e33;"/><rect x="155.906" y="127.559" width="14.173" height="14.173" style="fill:#3e3e33;"/><rect x="148.819" y="134.646" width="14.173" height="14.173" style="fill:#3e3e33;"/><rect x="141.732" y="141.732" width="14.173" height="14.173" style="fill:#3e3e33;"/><rect x="134.646" y="148.819" width="14.173" height="14.173" style="fill:#3e3e33;"/><rect x="127.559" y="155.906" width="14.173" height="14.173" style="fill:#3e3e33;"/><rect x="120.472" y="162.992" width="14.173" height="14.173" style="fill:#3e3e33;"/><rect x="113.386" y="170.079" width="14.173" height="14.173" style="fill:#3e3e33;"/><rect x="106.299" y="177.165" width="14.173" height="14.173" style="fill:#3e3e33;"/><rect x="99.213" y="184.252" width="14.173" height="14.173" style="fill:#3e3e33;"/><rect x="92.126" y="191.339" width="14.173" height="14.173" style="fill:#3e3e33;"/><rect x="85.039" y="198.425" width="14.173" height="14.173" style="fill:#3e3e33;"/><rect x="77.953" y="205.512" width="14.173" height="14.173" style="fill:#3e3e33;"/><rect x="70.866" y="212.598" width="14.173" height="14.173" style="fill:#3e3e33;"/><rect x="63.78" y="219.685" width="14.173" height="14.173" style="fill:#3e3e33;"/><rect x="56.693" y="226.772" width="14.173" height="14.173" style="fill:#3e3e33;"/><rect x="49.606" y="233.858" width="14.173" height="14.173" style="fill:#3e3e33;"/><rect x="42.52" y="240.945" width="14.173" height="14.173" style="fill:#3e3e33;"/><rect x="35.433" y="248.031" width="14.173" height="14.173" style="fill:#3e3e33;"/><rect x="28.346" y="255.118" width="14.173" height="14.173" style="fill:#3e3e33;"/><rect x="21.26" y="262.205" width="14.173" height="14.173" style="fill:#3e3e33;"/><rect x="14.173" y="269.291" width="14.173" height="14.173" style="fill:#3e3e33;"/><rect x="7.087" y="276.378" width="14.173" height="14.173" style="fill:#3e3e33;"/></g><g><rect x="198.425" y="127.559" width="14.173" height="14.173" style="fill:#3e3e33;"/><rect x="205.512" y="120.472" width="14.173" height="14.173" style="fill:#3e3e33;"/><rect x="212.598" y="113.386" width="14.173" height="14.173" style="fill:#3e3e33;"/><rect x="219.685" y="106.299" width="14.173" height="14.173" style="fill:#3e3e33;"/><rect x="226.772" y="99.213" width="14.173" height="14.173" style="fill:#3e3e33;"/><rect x="233.858" y="92.126" width="14.173" height="14.173" style="fill:#3e3e33;"/><rect x="240.945" y="85.039" width="14.173" height="14.173" style="fill:#3e3e33;"/><rect x="248.031" y="77.953" width="14.173" height="14.173" style="fill:#3e3e33;"/><rect x="255.118" y="70.866" width="14.173" height="14.173" style="fill:#3e3e33;"/><rect x="262.205" y="63.78" width="14.173" height="14.173" style="fill:#3e3e33;"/><rect x="269.291" y="56.693" width="14.173" height="14.173" style="fill:#3e3e33;"/><rect x="276.378" y="49.606" width="14.173" height="14.173" style="fill:#3e3e33;"/><rect x="283.465" y="42.52" width="14.173" height="14.173" style="fill:#3e3e33;"/><rect x="191.339" y="134.646" width="14.173" height="14.173" style="fill:#3e3e33;"/><rect x="184.252" y="141.732" width="14.173" height="14.173" style="fill:#3e3e33;"/><rect x="177.165" y="148.819" width="14.173" height="14.173" style="fill:#3e3e33;"/><rect x="170.079" y="155.906" width="14.173" height="14.173" style="fill:#3e3e33;"/><rect x="162.992" y="162.992" width="14.173" height="14.173" style="fill:#3e3e33;"/><rect x="155.906" y="170.079" width="14.173" height="14.173" style="fill:#3e3e33;"/><rect x="148.819" y="177.165" width="14.173" height="14.173" style="fill:#3e3e33;"/><rect x="141.732" y="184.252" width="14.173" height="14.173" style="fill:#3e3e33;"/><rect x="134.646" y="191.339" width="14.173" height="14.173" style="fill:#3e3e33;"/><rect x="127.559" y="198.425" width="14.173" height="14.173" style="fill:#3e3e33;"/><rect x="120.472" y="205.512" width="14.173" height="14.173" style="fill:#3e3e33;"/><rect x="113.386" y="212.598" width="14.173" height="14.173" style="fill:#3e3e33;"/><rect x="106.299" y="219.685" width="14.173" height="14.173" style="fill:#3e3e33;"/><rect x="99.213" y="226.772" width="14.173" height="14.173" style="fill:#3e3e33;"/><rect x="92.126" y="233.858" width="14.173" height="14.173" style="fill:#3e3e33;"/><rect x="85.039" y="240.945" width="14.173" height="14.173" style="fill:#3e3e33;"/><rect x="77.953" y="248.031" width="14.173" height="14.173" style="fill:#3e3e33;"/><rect x="70.866" y="255.118" width="14.173" height="14.173" style="fill:#3e3e33;"/><rect x="63.78" y="262.205" width="14.173" height="14.173" style="fill:#3e3e33;"/><rect x="56.693" y="269.291" width="14.173" height="14.173" style="fill:#3e3e33;"/><rect x="49.606" y="276.378" width="14.173" height="14.173" style="fill:#3e3e33;"/><rect x="42.52" y="283.465" width="14.173" height="14.173" style="fill:#3e3e33;"/></g></g><g><g><rect x="0" y="7.087" width="14.173" height="14.173" style="fill:#fcfced;"/><rect x="7.087" y="-0" width="14.173" height="14.173" style="fill:#fcfced;"/><rect x="14.173" y="-7.087" width="14.173" height="14.173" style="fill:#fcfced;"/><rect x="-7.087" y="14.173" width="14.173" height="14.173" style="fill:#fcfced;"/></g><g><rect x="7.087" y="42.52" width="14.173" height="14.173" style="fill:#fcfced;"/><rect x="14.173" y="35.433" width="14.173" height="14.173" style="fill:#fcfced;"/><rect x="21.26" y="28.346" width="14.173" height="14.173" style="fill:#fcfced;"/><rect x="28.346" y="21.26" width="14.173" height="14.173" style="fill:#fcfced;"/><rect x="35.433" y="14.173" width="14.173" height="14.173" style="fill:#fcfced;"/><rect x="42.52" y="7.087" width="14.173" height="14.173" style="fill:#fcfced;"/><rect x="49.606" y="-0" width="14.173" height="14.173" style="fill:#fcfced;"/><rect x="56.693" y="-7.087" width="14.173" height="14.173" style="fill:#fcfced;"/><rect x="0" y="49.606" width="14.173" height="14.173" style="fill:#fcfced;"/><rect x="-7.087" y="56.693" width="14.173" height="14.173" style="fill:#fcfced;"/></g><g><rect x="233.903" y="283.465" width="14.173" height="14.173" style="fill:#fcfced;"/><rect x="240.99" y="276.378" width="14.173" height="14.173" style="fill:#fcfced;"/><rect x="248.076" y="269.291" width="14.173" height="14.173" style="fill:#fcfced;"/><rect x="255.163" y="262.205" width="14.173" height="14.173" style="fill:#fcfced;"/><rect x="262.25" y="255.118" width="14.173" height="14.173" style="fill:#fcfced;"/><rect x="269.336" y="248.031" width="14.173" height="14.173" style="fill:#fcfced;"/><rect x="276.423" y="240.945" width="14.173" height="14.173" style="fill:#fcfced;"/></g><g><rect x="42.43" y="49.606" width="14.173" height="14.173" style="fill:#fcfced;"/><rect x="49.517" y="42.52" width="14.173" height="14.173" style="fill:#fcfced;"/><rect x="56.603" y="35.433" width="14.173" height="14.173" style="fill:#fcfced;"/><rect x="63.69" y="28.346" width="14.173" height="14.173" style="fill:#fcfced;"/><rect x="70.776" y="21.26" width="14.173" height="14.173" style="fill:#fcfced;"/><rect x="77.863" y="14.173" width="14.173" height="14.173" style="fill:#fcfced;"/><rect x="84.95" y="7.087" width="14.173" height="14.173" style="fill:#fcfced;"/><rect x="92.036" y="0" width="14.173" height="14.173" style="fill:#fcfced;"/><rect x="99.123" y="-7.087" width="14.173" height="14.173" style="fill:#fcfced;"/><rect x="35.343" y="56.693" width="14.173" height="14.173" style="fill:#fcfced;"/><rect x="28.257" y="63.78" width="14.173" height="14.173" style="fill:#fcfced;"/><rect x="21.17" y="70.866" width="14.173" height="14.173" style="fill:#fcfced;"/><rect x="14.173" y="77.953" width="14.173" height="14.173" style="fill:#fcfced;"/><rect x="6.997" y="85.039" width="14.173" height="14.173" style="fill:#fcfced;"/><rect x="-0.09" y="92.126" width="14.173" height="14.173" style="fill:#fcfced;"/><rect x="-7.087" y="99.213" width="14.173" height="14.173" style="fill:#fcfced;"/></g><g><rect x="240.945" y="233.858" width="14.173" height="14.173" style="fill:#fcfced;"/><rect x="248.031" y="226.772" width="14.173" height="14.173" style="fill:#fcfced;"/><rect x="255.118" y="219.685" width="14.173" height="14.173" style="fill:#fcfced;"/><rect x="262.205" y="212.598" width="14.173" height="14.173" style="fill:#fcfced;"/><rect x="269.291" y="205.512" width="14.173" height="14.173" style="fill:#fcfced;"/><rect x="276.378" y="198.425" width="14.173" height="14.173" style="fill:#fcfced;"/><rect x="283.465" y="191.339" width="14.173" height="14.173" style="fill:#fcfced;"/><rect x="233.858" y="240.945" width="14.173" height="14.173" style="fill:#fcfced;"/><rect x="226.772" y="248.031" width="14.173" height="14.173" style="fill:#fcfced;"/><rect x="219.685" y="255.118" width="14.173" height="14.173" style="fill:#fcfced;"/><rect x="212.688" y="262.205" width="14.173" height="14.173" style="fill:#fcfced;"/><rect x="205.512" y="269.291" width="14.173" height="14.173" style="fill:#fcfced;"/><rect x="198.425" y="276.378" width="14.173" height="14.173" style="fill:#fcfced;"/><rect x="191.428" y="283.465" width="14.173" height="14.173" style="fill:#fcfced;"/></g><g><rect x="77.863" y="56.693" width="14.173" height="14.173" style="fill:#fcfced;"/><rect x="84.95" y="49.606" width="14.173" height="14.173" style="fill:#fcfced;"/><rect x="92.036" y="42.52" width="14.173" height="14.173" style="fill:#fcfced;"/><rect x="99.123" y="35.433" width="14.173" height="14.173" style="fill:#fcfced;"/><rect x="106.209" y="28.346" width="14.173" height="14.173" style="fill:#fcfced;"/><rect x="113.296" y="21.26" width="14.173" height="14.173" style="fill:#fcfced;"/><rect x="120.383" y="14.173" width="14.173" height="14.173" style="fill:#fcfced;"/><rect x="127.469" y="7.087" width="14.173" height="14.173" style="fill:#fcfced;"/><rect x="134.556" y="0" width="14.173" height="14.173" style="fill:#fcfced;"/><rect x="141.732" y="-7.087" width="14.173" height="14.173" style="fill:#fcfced;"/><rect x="70.776" y="63.78" width="14.173" height="14.173" style="fill:#fcfced;"/><rect x="63.69" y="70.866" width="14.173" height="14.173" style="fill:#fcfced;"/><rect x="56.603" y="77.953" width="14.173" height="14.173" style="fill:#fcfced;"/><rect x="49.606" y="85.039" width="14.173" height="14.173" style="fill:#fcfced;"/><rect x="42.43" y="92.126" width="14.173" height="14.173" style="fill:#fcfced;"/><rect x="35.343" y="99.213" width="14.173" height="14.173" style="fill:#fcfced;"/><rect x="28.346" y="106.299" width="14.173" height="14.173" style="fill:#fcfced;"/><rect x="21.26" y="113.386" width="14.173" height="14.173" style="fill:#fcfced;"/><rect x="14.173" y="120.472" width="14.173" height="14.173" style="fill:#fcfced;"/><rect x="7.087" y="127.559" width="14.173" height="14.173" style="fill:#fcfced;"/><rect x="0" y="134.646" width="14.173" height="14.173" style="fill:#fcfced;"/><rect x="-7.087" y="141.732" width="14.173" height="14.173" style="fill:#fcfced;"/></g><g><rect x="205.422" y="184.252" width="14.173" height="14.173" style="fill:#fcfced;"/><rect x="212.509" y="177.165" width="14.173" height="14.173" style="fill:#fcfced;"/><rect x="219.595" y="170.079" width="14.173" height="14.173" style="fill:#fcfced;"/><rect x="226.682" y="162.992" width="14.173" height="14.173" style="fill:#fcfced;"/><rect x="233.768" y="155.906" width="14.173" height="14.173" style="fill:#fcfced;"/><rect x="240.855" y="148.819" width="14.173" height="14.173" style="fill:#fcfced;"/><rect x="247.942" y="141.732" width="14.173" height="14.173" style="fill:#fcfced;"/><rect x="255.028" y="134.646" width="14.173" height="14.173" style="fill:#fcfced;"/><rect x="262.115" y="127.559" width="14.173" height="14.173" style="fill:#fcfced;"/><rect x="269.291" y="120.472" width="14.173" height="14.173" style="fill:#fcfced;"/><rect x="276.378" y="113.386" width="14.173" height="14.173" style="fill:#fcfced;"/><rect x="198.335" y="191.339" width="14.173" height="14.173" style="fill:#fcfced;"/><rect x="191.249" y="198.425" width="14.173" height="14.173" style="fill:#fcfced;"/><rect x="184.162" y="205.512" width="14.173" height="14.173" style="fill:#fcfced;"/><rect x="177.165" y="212.598" width="14.173" height="14.173" style="fill:#fcfced;"/><rect x="169.989" y="219.685" width="14.173" height="14.173" style="fill:#fcfced;"/><rect x="162.902" y="226.772" width="14.173" height="14.173" style="fill:#fcfced;"/><rect x="155.906" y="233.858" width="14.173" height="14.173" style="fill:#fcfced;"/><rect x="148.819" y="240.945" width="14.173" height="14.173" style="fill:#fcfced;"/><rect x="141.732" y="248.031" width="14.173" height="14.173" style="fill:#fcfced;"/><rect x="134.646" y="255.118" width="14.173" height="14.173" style="fill:#fcfced;"/><rect x="127.559" y="262.205" width="14.173" height="14.173" style="fill:#fcfced;"/><rect x="120.472" y="269.291" width="14.173" height="14.173" style="fill:#fcfced;"/><rect x="113.386" y="276.378" width="14.173" height="14.173" style="fill:#fcfced;"/></g><g><rect x="226.682" y="205.512" width="14.173" height="14.173" style="fill:#fcfced;"/><rect x="233.768" y="198.425" width="14.173" height="14.173" style="fill:#fcfced;"/><rect x="240.855" y="191.339" width="14.173" height="14.173" style="fill:#fcfced;"/><rect x="247.942" y="184.252" width="14.173" height="14.173" style="fill:#fcfced;"/><rect x="255.028" y="177.165" width="14.173" height="14.173" style="fill:#fcfced;"/><rect x="262.115" y="170.079" width="14.173" height="14.173" style="fill:#fcfced;"/><rect x="269.202" y="162.992" width="14.173" height="14.173" style="fill:#fcfced;"/><rect x="276.288" y="155.906" width="14.173" height="14.173" style="fill:#fcfced;"/><rect x="283.375" y="148.819" width="14.173" height="14.173" style="fill:#fcfced;"/><rect x="219.595" y="212.598" width="14.173" height="14.173" style="fill:#fcfced;"/><rect x="212.509" y="219.685" width="14.173" height="14.173" style="fill:#fcfced;"/><rect x="205.422" y="226.772" width="14.173" height="14.173" style="fill:#fcfced;"/><rect x="198.425" y="233.858" width="14.173" height="14.173" style="fill:#fcfced;"/><rect x="191.249" y="240.945" width="14.173" height="14.173" style="fill:#fcfced;"/><rect x="184.162" y="248.031" width="14.173" height="14.173" style="fill:#fcfced;"/><rect x="177.165" y="255.118" width="14.173" height="14.173" style="fill:#fcfced;"/><rect x="170.079" y="262.205" width="14.173" height="14.173" style="fill:#fcfced;"/><rect x="162.992" y="269.291" width="14.173" height="14.173" style="fill:#fcfced;"/><rect x="155.906" y="276.378" width="14.173" height="14.173" style="fill:#fcfced;"/><rect x="148.819" y="283.465" width="14.173" height="14.173" style="fill:#fcfced;"/></g><g><rect x="113.296" y="63.78" width="14.173" height="14.173" style="fill:#fcfced;"/><rect x="120.383" y="56.693" width="14.173" height="14.173" style="fill:#fcfced;"/><rect x="127.469" y="49.606" width="14.173" height="14.173" style="fill:#fcfced;"/><rect x="134.556" y="42.52" width="14.173" height="14.173" style="fill:#fcfced;"/><rect x="141.642" y="35.433" width="14.173" height="14.173" style="fill:#fcfced;"/><rect x="148.729" y="28.346" width="14.173" height="14.173" style="fill:#fcfced;"/><rect x="155.816" y="21.26" width="14.173" height="14.173" style="fill:#fcfced;"/><rect x="162.902" y="14.173" width="14.173" height="14.173" style="fill:#fcfced;"/><rect x="169.989" y="7.087" width="14.173" height="14.173" style="fill:#fcfced;"/><rect x="177.165" y="0" width="14.173" height="14.173" style="fill:#fcfced;"/><rect x="184.252" y="-7.087" width="14.173" height="14.173" style="fill:#fcfced;"/><rect x="106.209" y="70.866" width="14.173" height="14.173" style="fill:#fcfced;"/><rect x="99.123" y="77.953" width="14.173" height="14.173" style="fill:#fcfced;"/><rect x="92.036" y="85.039" width="14.173" height="14.173" style="fill:#fcfced;"/><rect x="85.039" y="92.126" width="14.173" height="14.173" style="fill:#fcfced;"/><rect x="77.863" y="99.213" width="14.173" height="14.173" style="fill:#fcfced;"/><rect x="70.776" y="106.299" width="14.173" height="14.173" style="fill:#fcfced;"/><rect x="63.78" y="113.386" width="14.173" height="14.173" style="fill:#fcfced;"/><rect x="56.693" y="120.472" width="14.173" height="14.173" style="fill:#fcfced;"/><rect x="49.606" y="127.559" width="14.173" height="14.173" style="fill:#fcfced;"/><rect x="42.52" y="134.646" width="14.173" height="14.173" style="fill:#fcfced;"/><rect x="35.433" y="141.732" width="14.173" height="14.173" style="fill:#fcfced;"/><rect x="28.346" y="148.819" width="14.173" height="14.173" style="fill:#fcfced;"/><rect x="21.26" y="155.906" width="14.173" height="14.173" style="fill:#fcfced;"/><rect x="14.173" y="162.992" width="14.173" height="14.173" style="fill:#fcfced;"/><rect x="7.087" y="170.079" width="14.173" height="14.173" style="fill:#fcfced;"/><rect x="0" y="177.165" width="14.173" height="14.173" style="fill:#fcfced;"/><rect x="-7.087" y="184.252" width="14.173" height="14.173" style="fill:#fcfced;"/></g><g><rect x="198.335" y="148.819" width="14.173" height="14.173" style="fill:#fcfced;"/><rect x="205.422" y="141.732" width="14.173" height="14.173" style="fill:#fcfced;"/><rect x="212.509" y="134.646" width="14.173" height="14.173" style="fill:#fcfced;"/><rect x="219.595" y="127.559" width="14.173" height="14.173" style="fill:#fcfced;"/><rect x="226.682" y="120.472" width="14.173" height="14.173" style="fill:#fcfced;"/><rect x="233.768" y="113.386" width="14.173" height="14.173" style="fill:#fcfced;"/><rect x="240.855" y="106.299" width="14.173" height="14.173" style="fill:#fcfced;"/><rect x="247.942" y="99.213" width="14.173" height="14.173" style="fill:#fcfced;"/><rect x="255.028" y="92.126" width="14.173" height="14.173" style="fill:#fcfced;"/><rect x="262.205" y="85.039" width="14.173" height="14.173" style="fill:#fcfced;"/><rect x="269.291" y="77.953" width="14.173" height="14.173" style="fill:#fcfced;"/><rect x="276.378" y="70.866" width="14.173" height="14.173" style="fill:#fcfced;"/><rect x="191.249" y="155.906" width="14.173" height="14.173" style="fill:#fcfced;"/><rect x="184.162" y="162.992" width="14.173" height="14.173" style="fill:#fcfced;"/><rect x="177.076" y="170.079" width="14.173" height="14.173" style="fill:#fcfced;"/><rect x="170.079" y="177.165" width="14.173" height="14.173" style="fill:#fcfced;"/><rect x="162.902" y="184.252" width="14.173" height="14.173" style="fill:#fcfced;"/><rect x="155.816" y="191.339" width="14.173" height="14.173" style="fill:#fcfced;"/><rect x="148.819" y="198.425" width="14.173" height="14.173" style="fill:#fcfced;"/><rect x="141.732" y="205.512" width="14.173" height="14.173" style="fill:#fcfced;"/><rect x="134.646" y="212.598" width="14.173" height="14.173" style="fill:#fcfced;"/><rect x="127.559" y="219.685" width="14.173" height="14.173" style="fill:#fcfced;"/><rect x="120.472" y="226.772" width="14.173" height="14.173" style="fill:#fcfced;"/><rect x="113.386" y="233.858" width="14.173" height="14.173" style="fill:#fcfced;"/><rect x="106.299" y="240.945" width="14.173" height="14.173" style="fill:#fcfced;"/><rect x="99.213" y="248.031" width="14.173" height="14.173" style="fill:#fcfced;"/><rect x="92.126" y="255.118" width="14.173" height="14.173" style="fill:#fcfced;"/><rect x="85.039" y="262.205" width="14.173" height="14.173" style="fill:#fcfced;"/><rect x="77.953" y="269.291" width="14.173" height="14.173" style="fill:#fcfced;"/><rect x="70.866" y="276.378" width="14.173" height="14.173" style="fill:#fcfced;"/></g><g><rect x="148.729" y="70.866" width="14.173" height="14.173" style="fill:#fcfced;"/><rect x="155.816" y="63.78" width="14.173" height="14.173" style="fill:#fcfced;"/><rect x="162.902" y="56.693" width="14.173" height="14.173" style="fill:#fcfced;"/><rect x="169.989" y="49.606" width="14.173" height="14.173" style="fill:#fcfced;"/><rect x="177.076" y="42.52" width="14.173" height="14.173" style="fill:#fcfced;"/><rect x="184.162" y="35.433" width="14.173" height="14.173" style="fill:#fcfced;"/><rect x="191.249" y="28.346" width="14.173" height="14.173" style="fill:#fcfced;"/><rect x="198.335" y="21.26" width="14.173" height="14.173" style="fill:#fcfced;"/><rect x="205.422" y="14.173" width="14.173" height="14.173" style="fill:#fcfced;"/><rect x="212.598" y="7.087" width="14.173" height="14.173" style="fill:#fcfced;"/><rect x="219.685" y="0" width="14.173" height="14.173" style="fill:#fcfced;"/><rect x="226.772" y="-7.087" width="14.173" height="14.173" style="fill:#fcfced;"/><rect x="141.642" y="77.953" width="14.173" height="14.173" style="fill:#fcfced;"/><rect x="134.556" y="85.039" width="14.173" height="14.173" style="fill:#fcfced;"/><rect x="127.469" y="92.126" width="14.173" height="14.173" style="fill:#fcfced;"/><rect x="120.472" y="99.213" width="14.173" height="14.173" style="fill:#fcfced;"/><rect x="113.296" y="106.299" width="14.173" height="14.173" style="fill:#fcfced;"/><rect x="106.209" y="113.386" width="14.173" height="14.173" style="fill:#fcfced;"/><rect x="99.213" y="120.472" width="14.173" height="14.173" style="fill:#fcfced;"/><rect x="92.126" y="127.559" width="14.173" height="14.173" style="fill:#fcfced;"/><rect x="85.039" y="134.646" width="14.173" height="14.173" style="fill:#fcfced;"/><rect x="77.953" y="141.732" width="14.173" height="14.173" style="fill:#fcfced;"/><rect x="70.866" y="148.819" width="14.173" height="14.173" style="fill:#fcfced;"/><rect x="63.78" y="155.906" width="14.173" height="14.173" style="fill:#fcfced;"/><rect x="56.693" y="162.992" width="14.173" height="14.173" style="fill:#fcfced;"/><rect x="49.606" y="170.079" width="14.173" height="14.173" style="fill:#fcfced;"/><rect x="42.52" y="177.165" width="14.173" height="14.173" style="fill:#fcfced;"/><rect x="35.433" y="184.252" width="14.173" height="14.173" style="fill:#fcfced;"/><rect x="28.346" y="191.339" width="14.173" height="14.173" style="fill:#fcfced;"/><rect x="21.26" y="198.425" width="14.173" height="14.173" style="fill:#fcfced;"/><rect x="21.26" y="198.425" width="14.173" height="14.173" style="fill:#fcfced;"/><rect x="14.173" y="205.512" width="14.173" height="14.173" style="fill:#fcfced;"/><rect x="7.087" y="212.598" width="14.173" height="14.173" style="fill:#fcfced;"/><rect x="7.087" y="212.598" width="14.173" height="14.173" style="fill:#fcfced;"/><rect x="0" y="219.685" width="14.173" height="14.173" style="fill:#fcfced;"/><rect x="-7.087" y="226.772" width="14.173" height="14.173" style="fill:#fcfced;"/></g><g><rect x="198.335" y="106.299" width="14.173" height="14.173" style="fill:#fcfced;"/><rect x="205.422" y="99.213" width="14.173" height="14.173" style="fill:#fcfced;"/><rect x="212.509" y="92.126" width="14.173" height="14.173" style="fill:#fcfced;"/><rect x="219.595" y="85.039" width="14.173" height="14.173" style="fill:#fcfced;"/><rect x="226.682" y="77.953" width="14.173" height="14.173" style="fill:#fcfced;"/><rect x="233.768" y="70.866" width="14.173" height="14.173" style="fill:#fcfced;"/><rect x="240.855" y="63.78" width="14.173" height="14.173" style="fill:#fcfced;"/><rect x="247.942" y="56.693" width="14.173" height="14.173" style="fill:#fcfced;"/><rect x="255.028" y="49.606" width="14.173" height="14.173" style="fill:#fcfced;"/><rect x="262.205" y="42.52" width="14.173" height="14.173" style="fill:#fcfced;"/><rect x="269.291" y="35.433" width="14.173" height="14.173" style="fill:#fcfced;"/><rect x="276.378" y="28.346" width="14.173" height="14.173" style="fill:#fcfced;"/><rect x="191.249" y="113.386" width="14.173" height="14.173" style="fill:#fcfced;"/><rect x="184.162" y="120.472" width="14.173" height="14.173" style="fill:#fcfced;"/><rect x="177.076" y="127.559" width="14.173" height="14.173" style="fill:#fcfced;"/><rect x="170.079" y="134.646" width="14.173" height="14.173" style="fill:#fcfced;"/><rect x="162.902" y="141.732" width="14.173" height="14.173" style="fill:#fcfced;"/><rect x="155.816" y="148.819" width="14.173" height="14.173" style="fill:#fcfced;"/><rect x="148.819" y="155.906" width="14.173" height="14.173" style="fill:#fcfced;"/><rect x="141.732" y="162.992" width="14.173" height="14.173" style="fill:#fcfced;"/><rect x="134.646" y="170.079" width="14.173" height="14.173" style="fill:#fcfced;"/><rect x="127.559" y="177.165" width="14.173" height="14.173" style="fill:#fcfced;"/><rect x="120.472" y="184.252" width="14.173" height="14.173" style="fill:#fcfced;"/><rect x="113.386" y="191.339" width="14.173" height="14.173" style="fill:#fcfced;"/><rect x="106.299" y="198.425" width="14.173" height="14.173" style="fill:#fcfced;"/><rect x="99.213" y="205.512" width="14.173" height="14.173" style="fill:#fcfced;"/><rect x="92.126" y="212.598" width="14.173" height="14.173" style="fill:#fcfced;"/><rect x="85.039" y="219.685" width="14.173" height="14.173" style="fill:#fcfced;"/><rect x="77.953" y="226.772" width="14.173" height="14.173" style="fill:#fcfced;"/><rect x="70.866" y="233.858" width="14.173" height="14.173" style="fill:#fcfced;"/><rect x="70.866" y="233.858" width="14.173" height="14.173" style="fill:#fcfced;"/><rect x="63.78" y="240.945" width="14.173" height="14.173" style="fill:#fcfced;"/><rect x="56.693" y="248.031" width="14.173" height="14.173" style="fill:#fcfced;"/><rect x="56.693" y="248.031" width="14.173" height="14.173" style="fill:#fcfced;"/><rect x="49.606" y="255.118" width="14.173" height="14.173" style="fill:#fcfced;"/><rect x="42.52" y="262.205" width="14.173" height="14.173" style="fill:#fcfced;"/><rect x="35.433" y="269.291" width="14.173" height="14.173" style="fill:#fcfced;"/><rect x="28.346" y="276.378" width="14.173" height="14.173" style="fill:#fcfced;"/></g><g><rect x="184.162" y="77.953" width="14.173" height="14.173" style="fill:#fcfced;"/><rect x="191.249" y="70.866" width="14.173" height="14.173" style="fill:#fcfced;"/><rect x="198.335" y="63.78" width="14.173" height="14.173" style="fill:#fcfced;"/><rect x="205.422" y="56.693" width="14.173" height="14.173" style="fill:#fcfced;"/><rect x="212.509" y="49.606" width="14.173" height="14.173" style="fill:#fcfced;"/><rect x="219.595" y="42.52" width="14.173" height="14.173" style="fill:#fcfced;"/><rect x="226.682" y="35.433" width="14.173" height="14.173" style="fill:#fcfced;"/><rect x="233.768" y="28.346" width="14.173" height="14.173" style="fill:#fcfced;"/><rect x="240.855" y="21.26" width="14.173" height="14.173" style="fill:#fcfced;"/><rect x="248.031" y="14.173" width="14.173" height="14.173" style="fill:#fcfced;"/><rect x="255.118" y="7.087" width="14.173" height="14.173" style="fill:#fcfced;"/><rect x="262.205" y="-0" width="14.173" height="14.173" style="fill:#fcfced;"/><rect x="269.291" y="-7.087" width="14.173" height="14.173" style="fill:#fcfced;"/><rect x="177.076" y="85.039" width="14.173" height="14.173" style="fill:#fcfced;"/><rect x="169.989" y="92.126" width="14.173" height="14.173" style="fill:#fcfced;"/><rect x="162.902" y="99.213" width="14.173" height="14.173" style="fill:#fcfced;"/><rect x="155.906" y="106.299" width="14.173" height="14.173" style="fill:#fcfced;"/><rect x="148.729" y="113.386" width="14.173" height="14.173" style="fill:#fcfced;"/><rect x="141.642" y="120.472" width="14.173" height="14.173" style="fill:#fcfced;"/><rect x="134.646" y="127.559" width="14.173" height="14.173" style="fill:#fcfced;"/><rect x="127.559" y="134.646" width="14.173" height="14.173" style="fill:#fcfced;"/><rect x="120.472" y="141.732" width="14.173" height="14.173" style="fill:#fcfced;"/><rect x="113.386" y="148.819" width="14.173" height="14.173" style="fill:#fcfced;"/><rect x="106.299" y="155.906" width="14.173" height="14.173" style="fill:#fcfced;"/><rect x="99.213" y="162.992" width="14.173" height="14.173" style="fill:#fcfced;"/><rect x="92.126" y="170.079" width="14.173" height="14.173" style="fill:#fcfced;"/><rect x="85.039" y="177.165" width="14.173" height="14.173" style="fill:#fcfced;"/><rect x="77.953" y="184.252" width="14.173" height="14.173" style="fill:#fcfced;"/><rect x="70.866" y="191.339" width="14.173" height="14.173" style="fill:#fcfced;"/><rect x="63.78" y="198.425" width="14.173" height="14.173" style="fill:#fcfced;"/><rect x="56.693" y="205.512" width="14.173" height="14.173" style="fill:#fcfced;"/><rect x="56.693" y="205.512" width="14.173" height="14.173" style="fill:#fcfced;"/><rect x="49.606" y="212.598" width="14.173" height="14.173" style="fill:#fcfced;"/><rect x="42.52" y="219.685" width="14.173" height="14.173" style="fill:#fcfced;"/><rect x="42.52" y="219.685" width="14.173" height="14.173" style="fill:#fcfced;"/><rect x="35.433" y="226.772" width="14.173" height="14.173" style="fill:#fcfced;"/><rect x="28.346" y="233.858" width="14.173" height="14.173" style="fill:#fcfced;"/><rect x="21.26" y="240.945" width="14.173" height="14.173" style="fill:#fcfced;"/><rect x="14.173" y="248.031" width="14.173" height="14.173" style="fill:#fcfced;"/><rect x="14.173" y="248.031" width="14.173" height="14.173" style="fill:#fcfced;"/><rect x="7.087" y="255.118" width="14.173" height="14.173" style="fill:#fcfced;"/><rect x="0" y="262.205" width="14.173" height="14.173" style="fill:#fcfced;"/><rect x="-7.087" y="269.291" width="14.173" height="14.173" style="fill:#fcfced;"/></g></g></g></svg>