<?xml version="1.0" standalone="no"?>
<!DOCTYPE svg PUBLIC "-//W3C//DTD SVG 20010904//EN"
 "http://www.w3.org/TR/2001/REC-SVG-20010904/DTD/svg10.dtd">
<svg version="1.0" xmlns="http://www.w3.org/2000/svg"
 width="535.000000pt" height="535.000000pt" viewBox="0 0 535.000000 535.000000"
 preserveAspectRatio="xMidYMid meet">
<metadata>
Created by potrace 1.14, written by Peter Selinger 2001-2017
</metadata>
<g transform="translate(0.000000,535.000000) scale(0.100000,-0.100000)"
fill="#000000" stroke="none">
<path d="M2450 3943 c-14 -2 -92 -17 -174 -34 -160 -32 -238 -65 -339 -140
-28 -22 -59 -39 -69 -39 -10 0 -18 -4 -18 -9 0 -5 -8 -12 -17 -15 -10 -3 -35
-22 -56 -41 -21 -19 -41 -35 -45 -35 -11 0 -162 -150 -207 -206 -59 -71 -81
-110 -121 -215 -53 -140 -64 -177 -74 -258 -7 -48 -16 -78 -26 -86 -13 -9 -15
-21 -10 -51 4 -21 10 -79 14 -129 5 -49 14 -103 21 -120 8 -16 15 -70 16 -118
3 -84 4 -90 34 -121 17 -18 31 -43 32 -56 1 -38 21 -86 49 -116 14 -15 43 -62
65 -103 36 -69 46 -79 102 -111 34 -19 68 -46 75 -60 24 -47 75 -99 115 -116
17 -8 34 -23 38 -34 3 -11 19 -27 36 -37 16 -9 29 -21 29 -25 0 -4 10 -8 23
-8 12 0 37 -14 56 -30 19 -17 45 -30 60 -30 15 0 49 -14 77 -31 27 -18 76 -41
109 -51 33 -11 65 -24 70 -28 15 -12 57 -19 157 -26 142 -10 230 22 212 78 -9
30 -9 94 0 136 8 34 69 102 93 102 7 0 13 5 13 12 0 6 3 9 6 6 3 -4 19 -2 36
3 17 4 81 9 142 10 122 2 136 5 136 25 0 8 5 14 11 14 5 0 7 5 4 10 -3 5 -1
10 6 10 7 0 9 3 6 6 -7 7 27 59 54 84 9 8 23 29 32 45 32 63 139 144 215 165
55 14 233 12 249 -3 3 -4 13 -7 21 -7 8 0 39 -11 69 -25 55 -27 75 -25 111 12
8 7 17 11 21 8 23 -14 99 132 106 202 17 166 25 224 31 235 3 5 0 8 -7 8 -8 0
-8 4 -2 13 6 6 9 20 7 30 -1 10 -5 49 -8 85 -4 42 -15 85 -31 116 -14 27 -25
60 -25 72 0 44 -42 134 -86 186 -24 28 -63 84 -86 122 -22 39 -56 91 -75 116
-48 63 -79 109 -102 150 -11 19 -50 60 -87 90 -36 30 -87 76 -112 103 -25 26
-51 47 -57 47 -6 0 -34 16 -61 35 -27 19 -65 38 -84 42 -19 3 -51 19 -71 35
-50 40 -120 60 -269 77 -41 5 -90 12 -108 16 -23 4 -41 2 -57 -9 -14 -9 -26
-12 -30 -6 -9 14 -185 30 -245 23z m480 -1935 c0 -4 5 -8 11 -8 5 0 7 6 3 13
-5 7 0 6 11 -3 11 -9 16 -10 11 -2 -8 13 15 18 27 5 4 -3 20 -8 36 -9 16 -2
41 -9 57 -15 16 -7 35 -13 43 -15 28 -5 33 -21 16 -53 -9 -17 -20 -29 -26 -26
-5 4 -8 3 -7 -2 5 -13 -10 -16 -43 -9 -17 3 -28 9 -26 13 3 5 -25 8 -61 7 -37
0 -73 4 -79 9 -9 6 -13 6 -13 -2 0 -7 -6 -11 -12 -9 -7 1 -23 -2 -36 -6 -23
-8 -61 17 -43 28 5 3 14 -1 21 -9 9 -10 17 -12 30 -5 9 5 21 6 25 2 5 -4 5 -1
0 7 -5 8 -4 12 1 8 6 -3 11 3 11 14 1 12 -3 19 -10 16 -7 -2 -12 -9 -12 -16 0
-14 -26 -32 -37 -25 -15 10 -8 23 10 18 12 -4 13 -3 4 3 -9 7 -6 13 13 21 30
14 49 7 41 -15 -4 -9 -2 -11 6 -7 6 4 9 3 6 -2 -4 -5 5 -10 18 -10 13 -1 21 2
18 7 -3 5 -12 9 -20 9 -8 0 -14 5 -14 11 0 5 4 8 8 5 16 -10 10 33 -6 46 -15
12 -16 11 -3 -5 8 -9 11 -20 8 -24 -4 -3 -10 2 -13 11 -5 14 -9 15 -15 4 -7
-11 -11 -10 -20 2 -9 13 -10 12 -5 -3 3 -11 2 -16 -4 -12 -6 3 -10 2 -10 -2 0
-5 -18 -19 -40 -33 -31 -19 -36 -26 -25 -33 16 -9 11 -27 -6 -27 -6 0 -8 4 -5
8 2 4 -5 9 -17 9 -17 2 -19 0 -7 -7 14 -9 7 -14 -13 -11 -4 1 -10 -6 -14 -16
-6 -15 -7 -15 -14 3 -7 17 -8 17 -8 2 -1 -21 -10 -22 -31 -7 -12 9 -12 10 3 5
11 -4 17 -2 15 5 -5 14 63 89 81 89 8 0 11 -6 7 -15 -5 -13 -2 -13 19 1 14 9
25 21 24 28 0 7 -2 6 -6 -1 -6 -15 -33 -17 -33 -3 0 9 14 12 36 9 4 0 11 5 16
13 7 9 8 7 4 -7 l-6 -20 16 20 c8 11 21 19 29 17 7 -1 16 1 19 6 7 11 36 11
36 0z"/>
<path d="M2975 1991 c-3 -5 -2 -12 3 -15 5 -3 9 1 9 9 0 17 -3 19 -12 6z"/>
<path d="M2948 1963 c6 -2 10 -8 7 -13 -3 -4 3 -14 13 -21 15 -13 16 -12 3 4
-11 14 -11 17 0 17 11 0 11 2 -1 10 -8 5 -19 9 -25 9 -5 0 -4 -3 3 -6z"/>
<path d="M3010 1950 c0 -5 5 -10 11 -10 5 0 7 5 4 10 -3 6 -8 10 -11 10 -2 0
-4 -4 -4 -10z"/>
</g>
</svg>
